G04 ================== begin FILE IDENTIFICATION RECORD ==================*
G04 Layout Name:  D:/ERS/allegro/p1_olteanu_rares.brd*
G04 Film Name:    BOTTOM*
G04 File Format:  Gerber RS274X*
G04 File Origin:  Cadence Allegro 24.1-S001*
G04 Origin Date:  Sat Dec 14 12:07:02 2024*
G04 *
G04 Layer:  ETCH/BOTTOM*
G04 Layer:  PIN/BOTTOM*
G04 Layer:  VIA CLASS/BOTTOM*
G04 *
G04 Offset:    (0.00 0.00)*
G04 Mirror:    No*
G04 Mode:      Positive*
G04 Rotation:  0*
G04 FullContactRelief:  No*
G04 UndefLineWidth:     0.10*
G04 ================== end FILE IDENTIFICATION RECORD ====================*
%FSLAX25Y25*MOIN*%
%IR0*IPPOS*OFA0.00000B0.00000*MIA0B0*SFA1.00000B1.00000*%
%ADD10C,.034*%
%ADD11C,.02*%
%ADD12C,.018*%
G75*
%LPD*%
G75*
G54D10*
X51998Y115002D03*
X49000Y92000D03*
X31000Y136000D03*
X84000Y56000D03*
X76000Y36000D03*
X58538Y60000D03*
X70000Y99000D03*
X74000Y116000D03*
X114000Y78000D03*
X108000Y65000D03*
X91000Y72000D03*
X95000Y121000D03*
X86000Y152000D03*
X140000Y27000D03*
X116000Y93000D03*
X119000Y104000D03*
X120000Y112305D03*
Y136418D03*
X143000Y151000D03*
G54D11*
G01X31000Y136000D02*
X54000D01*
X74000Y116000D01*
G01X76000Y36000D02*
X131000D01*
G01X74000Y116000D02*
X90000D01*
X95000Y121000D01*
G01Y72000D02*
X131000Y36000D01*
G01X120000Y112305D02*
X111637Y103942D01*
Y88637D01*
X95000Y72000D01*
G01D02*
X91000D01*
G01X120000Y136418D02*
X110418D01*
X95000Y121000D01*
G01X131000Y36000D02*
X140000Y27000D01*
G54D12*
G01X86000Y152000D02*
X78000Y144000D01*
X22000D01*
X19273Y146727D01*
X16727D01*
X15273Y145273D01*
Y142727D01*
X49000Y109000D01*
Y92000D01*
G01X70000Y99000D02*
X69000Y100000D01*
X67000D01*
X51998Y115002D01*
G01X58538Y60000D02*
Y82462D01*
X49000Y92000D01*
G01X84000Y56000D02*
Y90000D01*
X117000Y123000D01*
Y125200D01*
X118800Y127000D01*
X119000D01*
X143000Y151000D01*
G01X114000Y78000D02*
Y71000D01*
X108000Y65000D01*
G01X116000Y93000D02*
Y101000D01*
X119000Y104000D01*
M02*
