M48
INCH,TZ
T01C.016
;LEADER: 12 
;HEADER: 
;CODE  : ASCII 
;FILE  : p1_olteanu_rares-1-2.drl for  ... layers TOP and BOTTOM
;DESIGN: p1_olteanu_rares.brd
;T01 Holesize 1. = 16.000000 Tolerance = +0.000000/-0.000000 PLATED MILS Quantity = 20
%
G90
T01
X76000Y36000
X140000Y27000
X91000Y72000
X120000Y112305
X74000Y116000
X31000Y136000
X95000Y121000
X120000Y136418
X119000Y144000
X85000Y78800
X81000Y152000
X50000Y91000
X50000Y77000
X121000Y122000
X118900Y60000
X94500Y79500
X114937Y82063
X90000Y67000
X67000Y100000
X51998Y115002
M30
