G04 ================== begin FILE IDENTIFICATION RECORD ==================*
G04 Layout Name:  D:/ERS/allegro/p1_olteanu_rares.brd*
G04 Film Name:    FAB*
G04 File Format:  Gerber RS274X*
G04 File Origin:  Cadence Allegro 24.1-S001*
G04 Origin Date:  Sat Dec 14 12:07:02 2024*
G04 *
G04 Layer:  MANUFACTURING/NCDRILL_LEGEND*
G04 Layer:  MANUFACTURING/NCDRILL_FIGURE*
G04 Layer:  MANUFACTURING/XSECTION_CHART*
G04 Layer:  MANUFACTURING/NCLEGEND-1-2*
G04 Layer:  BOARD GEOMETRY/DIMENSION*
G04 Layer:  BOARD GEOMETRY/DESIGN_OUTLINE*
G04 *
G04 Offset:    (0.00 0.00)*
G04 Mirror:    No*
G04 Mode:      Positive*
G04 Rotation:  0*
G04 FullContactRelief:  No*
G04 UndefLineWidth:     0.10*
G04 ================== end FILE IDENTIFICATION RECORD ====================*
%FSLAX25Y25*MOIN*%
%IR0*IPPOS*OFA0.00000B0.00000*MIA0B0*SFA1.00000B1.00000*%
%AMMACRO10*
1,1,.0001,.025,0.0*
20,1,.0001,.025,0.0,.02462,-.004341,0.0*
1,1,.0001,.02462,-.004341*
20,1,.0001,.02462,-.004341,.023492,-.008551,0.0*
1,1,.0001,.023492,-.008551*
20,1,.0001,.023492,-.008551,.021651,-.0125,0.0*
1,1,.0001,.021651,-.0125*
20,1,.0001,.021651,-.0125,.019151,-.01607,0.0*
1,1,.0001,.019151,-.01607*
20,1,.0001,.019151,-.01607,.01607,-.019151,0.0*
1,1,.0001,.01607,-.019151*
20,1,.0001,.01607,-.019151,.0125,-.021651,0.0*
1,1,.0001,.0125,-.021651*
20,1,.0001,.0125,-.021651,.008551,-.023492,0.0*
1,1,.0001,.008551,-.023492*
20,1,.0001,.008551,-.023492,.004341,-.02462,0.0*
1,1,.0001,.004341,-.02462*
20,1,.0001,.004341,-.02462,0.0,-.025,0.0*
1,1,.0001,0.0,-.025*
20,1,.0001,0.0,-.025,-.004341,-.02462,0.0*
1,1,.0001,-.004341,-.02462*
20,1,.0001,-.004341,-.02462,-.008551,-.023492,0.0*
1,1,.0001,-.008551,-.023492*
20,1,.0001,-.008551,-.023492,-.0125,-.021651,0.0*
1,1,.0001,-.0125,-.021651*
20,1,.0001,-.0125,-.021651,-.01607,-.019151,0.0*
1,1,.0001,-.01607,-.019151*
20,1,.0001,-.01607,-.019151,-.019151,-.01607,0.0*
1,1,.0001,-.019151,-.01607*
20,1,.0001,-.019151,-.01607,-.021651,-.0125,0.0*
1,1,.0001,-.021651,-.0125*
20,1,.0001,-.021651,-.0125,-.023492,-.008551,0.0*
1,1,.0001,-.023492,-.008551*
20,1,.0001,-.023492,-.008551,-.02462,-.004341,0.0*
1,1,.0001,-.02462,-.004341*
20,1,.0001,-.02462,-.004341,-.025,0.0,0.0*
1,1,.0001,-.025,0.0*
20,1,.0001,-.025,0.0,-.02462,.004341,0.0*
1,1,.0001,-.02462,.004341*
20,1,.0001,-.02462,.004341,-.023492,.008551,0.0*
1,1,.0001,-.023492,.008551*
20,1,.0001,-.023492,.008551,-.021651,.0125,0.0*
1,1,.0001,-.021651,.0125*
20,1,.0001,-.021651,.0125,-.019151,.01607,0.0*
1,1,.0001,-.019151,.01607*
20,1,.0001,-.019151,.01607,-.01607,.019151,0.0*
1,1,.0001,-.01607,.019151*
20,1,.0001,-.01607,.019151,-.0125,.021651,0.0*
1,1,.0001,-.0125,.021651*
20,1,.0001,-.0125,.021651,-.008551,.023492,0.0*
1,1,.0001,-.008551,.023492*
20,1,.0001,-.008551,.023492,-.004341,.02462,0.0*
1,1,.0001,-.004341,.02462*
20,1,.0001,-.004341,.02462,0.0,.025,0.0*
1,1,.0001,0.0,.025*
20,1,.0001,0.0,.025,.004341,.02462,0.0*
1,1,.0001,.004341,.02462*
20,1,.0001,.004341,.02462,.008551,.023492,0.0*
1,1,.0001,.008551,.023492*
20,1,.0001,.008551,.023492,.0125,.021651,0.0*
1,1,.0001,.0125,.021651*
20,1,.0001,.0125,.021651,.01607,.019151,0.0*
1,1,.0001,.01607,.019151*
20,1,.0001,.01607,.019151,.019151,.01607,0.0*
1,1,.0001,.019151,.01607*
20,1,.0001,.019151,.01607,.021651,.0125,0.0*
1,1,.0001,.021651,.0125*
20,1,.0001,.021651,.0125,.023492,.008551,0.0*
1,1,.0001,.023492,.008551*
20,1,.0001,.023492,.008551,.02462,.004341,0.0*
1,1,.0001,.02462,.004341*
20,1,.0001,.02462,.004341,.025,0.0,0.0*
1,1,.0001,.025,0.0*
1,1,.0001,.0125,0.0*
20,1,.0001,.0125,0.0,-.0125,0.0,0.0*
1,1,.0001,-.0125,0.0*
1,1,.0001,0.0,.0125*
20,1,.0001,0.0,.0125,0.0,-.0125,0.0*
1,1,.0001,0.0,-.0125*
%
%ADD10MACRO10*%
%ADD11C,.0001*%
G75*
%LPD*%
G75*
G36*
G01X245000Y208061D02*
Y205892D01*
X247500D01*
Y11831D01*
X245000D01*
Y9662D01*
X260000D01*
Y11831D01*
X257500D01*
Y205892D01*
X260000D01*
Y208061D01*
X245000D01*
G37*
G36*
G01X225000Y9663D02*
Y11832D01*
X285000D01*
Y9663D01*
X225000D01*
G37*
G36*
G01Y205892D02*
Y208061D01*
X285000D01*
Y205892D01*
X225000D01*
G37*
G54D10*
X-204050Y-105500D03*
X51998Y115002D03*
X49000Y92000D03*
X31000Y136000D03*
X84000Y56000D03*
X76000Y36000D03*
X58538Y60000D03*
X70000Y99000D03*
X74000Y116000D03*
X114000Y78000D03*
X108000Y65000D03*
X91000Y72000D03*
X95000Y121000D03*
X86000Y152000D03*
X140000Y27000D03*
X116000Y93000D03*
X119000Y104000D03*
X120000Y112305D03*
Y136418D03*
X143000Y151000D03*
G54D11*
G01X-249000Y-118000D02*
Y-18000D01*
X448500D01*
Y-118000D01*
X-249000D01*
G01Y-68000D02*
X448500D01*
G01X-249000Y-93000D02*
X448500D01*
G01X-249000Y-43000D02*
X448500D01*
G01X-237995Y-86750D02*
Y-74250D01*
X-232105D01*
G01X-234275Y-80292D02*
X-237995D01*
G01X-224510Y-74250D02*
X-220790D01*
G01X-222650D02*
Y-86750D01*
G01X-224510D02*
X-220790D01*
G01X-209320Y-80500D02*
X-206220D01*
Y-84250D01*
X-207150Y-85500D01*
X-208235Y-86333D01*
X-209785Y-86750D01*
X-211335Y-86333D01*
X-212420Y-85500D01*
X-213350Y-84250D01*
X-213970Y-82792D01*
X-214280Y-81125D01*
Y-79667D01*
X-213970Y-78417D01*
X-213350Y-76958D01*
X-212420Y-75708D01*
X-211490Y-74875D01*
X-210250Y-74250D01*
X-209165D01*
X-207925Y-74667D01*
X-206995Y-75500D01*
G01X-201260Y-74250D02*
Y-83208D01*
X-200640Y-85084D01*
X-199400Y-86333D01*
X-197850Y-86750D01*
X-196300Y-86333D01*
X-195060Y-85084D01*
X-194440Y-83208D01*
Y-74250D01*
G01X-188550Y-86750D02*
Y-74250D01*
X-184675D01*
X-183435Y-74875D01*
X-182660Y-75708D01*
X-182350Y-77375D01*
X-182660Y-79042D01*
X-183590Y-80083D01*
X-184675Y-80708D01*
X-188550D01*
G01X-184675D02*
X-182350Y-86750D01*
G01X-169950D02*
X-176150D01*
Y-74250D01*
X-169950D01*
G01X-172430Y-80292D02*
X-176150D01*
G01X-159100Y-68000D02*
Y-118000D01*
G01X-135695Y-86750D02*
Y-74250D01*
X-129805D01*
G01X-131975Y-80292D02*
X-135695D01*
G01X-122210Y-74250D02*
X-118490D01*
G01X-120350D02*
Y-86750D01*
G01X-122210D02*
X-118490D01*
G01X-111515D02*
Y-74250D01*
X-104385Y-86750D01*
Y-74250D01*
G01X-97410D02*
X-93690D01*
G01X-95550D02*
Y-86750D01*
G01X-97410D02*
X-93690D01*
G01X-86405Y-85084D02*
X-85165Y-86125D01*
X-83770Y-86750D01*
X-82530D01*
X-81290Y-86125D01*
X-80360Y-85084D01*
X-79895Y-83625D01*
X-80205Y-82167D01*
X-80980Y-80917D01*
X-82375Y-80083D01*
X-84235Y-79667D01*
X-85320Y-78833D01*
X-85785Y-77375D01*
X-85475Y-75917D01*
X-84700Y-74875D01*
X-83615Y-74250D01*
X-82530D01*
X-81445Y-74667D01*
X-80515Y-75708D01*
G01X-74005Y-86750D02*
Y-74250D01*
G01X-67495D02*
Y-86750D01*
G01Y-80500D02*
X-74005D01*
G01X-55250Y-86750D02*
X-61450D01*
Y-74250D01*
X-55250D01*
G01X-57730Y-80292D02*
X-61450D01*
G01X-49360Y-86750D02*
Y-74250D01*
X-46260D01*
X-45020Y-74875D01*
X-44090Y-75708D01*
X-43315Y-76958D01*
X-42695Y-78417D01*
X-42540Y-80500D01*
X-42695Y-82583D01*
X-43315Y-84042D01*
X-44090Y-85292D01*
X-45020Y-86125D01*
X-46260Y-86750D01*
X-49360D01*
G01X-38200Y-90917D02*
X-28900D01*
G01X-24405Y-85084D02*
X-23165Y-86125D01*
X-21770Y-86750D01*
X-20530D01*
X-19290Y-86125D01*
X-18360Y-85084D01*
X-17895Y-83625D01*
X-18205Y-82167D01*
X-18980Y-80917D01*
X-20375Y-80083D01*
X-22235Y-79667D01*
X-23320Y-78833D01*
X-23785Y-77375D01*
X-23475Y-75917D01*
X-22700Y-74875D01*
X-21615Y-74250D01*
X-20530D01*
X-19445Y-74667D01*
X-18515Y-75708D01*
G01X-10610Y-74250D02*
X-6890D01*
G01X-8750D02*
Y-86750D01*
G01X-10610D02*
X-6890D01*
G01X705Y-74250D02*
X6595D01*
X705Y-86750D01*
X6595D01*
G01X19150D02*
X12950D01*
Y-74250D01*
X19150D01*
G01X16670Y-80292D02*
X12950D01*
G01X-76950Y-111750D02*
Y-99250D01*
X-78810Y-101750D01*
G01Y-111750D02*
X-75090D01*
G01X-67495Y-106542D02*
X-66410Y-105083D01*
X-65480Y-104250D01*
X-64240Y-103833D01*
X-63155Y-104250D01*
X-62380Y-105083D01*
X-61760Y-106333D01*
X-61605Y-107792D01*
X-61760Y-109042D01*
X-62380Y-110292D01*
X-63310Y-111333D01*
X-64395Y-111750D01*
X-65635Y-111333D01*
X-66720Y-110084D01*
X-67340Y-108208D01*
X-67495Y-106125D01*
X-67185Y-103417D01*
X-66720Y-101958D01*
X-65945Y-100500D01*
X-64860Y-99458D01*
X-63775Y-99250D01*
X-62690Y-99667D01*
X-61915Y-100708D01*
G01X-52150Y-112167D02*
X-52460Y-111958D01*
Y-111542D01*
X-52150Y-111333D01*
X-51840Y-111542D01*
Y-111958D01*
X-52150Y-112167D01*
G01X-39750Y-99250D02*
X-40990Y-99667D01*
X-41920Y-100708D01*
X-42540Y-101958D01*
X-43005Y-103625D01*
X-43160Y-105500D01*
X-43005Y-107375D01*
X-42540Y-109042D01*
X-41920Y-110292D01*
X-40990Y-111333D01*
X-39750Y-111750D01*
X-38510Y-111333D01*
X-37580Y-110292D01*
X-36960Y-109042D01*
X-36495Y-107375D01*
X-36340Y-105500D01*
X-36495Y-103625D01*
X-36960Y-101958D01*
X-37580Y-100708D01*
X-38510Y-99667D01*
X-39750Y-99250D01*
G01X-58660Y-36750D02*
Y-24250D01*
X-55560D01*
X-54320Y-24875D01*
X-53390Y-25708D01*
X-52615Y-26958D01*
X-51995Y-28417D01*
X-51840Y-30500D01*
X-51995Y-32583D01*
X-52615Y-34042D01*
X-53390Y-35292D01*
X-54320Y-36125D01*
X-55560Y-36750D01*
X-58660D01*
G01X-45950D02*
Y-24250D01*
X-42075D01*
X-40835Y-24875D01*
X-40060Y-25708D01*
X-39750Y-27375D01*
X-40060Y-29042D01*
X-40990Y-30083D01*
X-42075Y-30708D01*
X-45950D01*
G01X-42075D02*
X-39750Y-36750D01*
G01X-32310Y-24250D02*
X-28590D01*
G01X-30450D02*
Y-36750D01*
G01X-32310D02*
X-28590D01*
G01X-21150Y-24250D02*
Y-36750D01*
X-14950D01*
G01X-8750Y-24250D02*
Y-36750D01*
X-2550D01*
G01X22560Y-25292D02*
X21630Y-24667D01*
X20545Y-24250D01*
X19305D01*
X17910Y-24875D01*
X16825Y-25917D01*
X16050Y-27167D01*
X15430Y-29250D01*
X15275Y-31125D01*
X15585Y-33000D01*
X16050Y-34250D01*
X16980Y-35500D01*
X18065Y-36333D01*
X19150Y-36750D01*
X20235D01*
X21320Y-36333D01*
X22250Y-35709D01*
X23025Y-34875D01*
G01X28295Y-36750D02*
Y-24250D01*
G01X34805D02*
Y-36750D01*
G01Y-30500D02*
X28295D01*
G01X40075Y-36750D02*
X43950Y-24250D01*
X47825Y-36750D01*
G01X46430Y-32375D02*
X41470D01*
G01X53250Y-36750D02*
Y-24250D01*
X57125D01*
X58365Y-24875D01*
X59140Y-25708D01*
X59450Y-27375D01*
X59140Y-29042D01*
X58210Y-30083D01*
X57125Y-30708D01*
X53250D01*
G01X57125D02*
X59450Y-36750D01*
G01X68750Y-24250D02*
Y-36750D01*
G01X65185Y-24250D02*
X72315D01*
G01X81150Y-37167D02*
X80840Y-36958D01*
Y-36542D01*
X81150Y-36333D01*
X81460Y-36542D01*
Y-36958D01*
X81150Y-37167D01*
G01Y-31542D02*
X80840Y-31333D01*
Y-30917D01*
X81150Y-30708D01*
X81460Y-30917D01*
Y-31333D01*
X81150Y-31542D01*
G01X105950Y-24250D02*
Y-36750D01*
G01X102385Y-24250D02*
X109515D01*
G01X118350Y-36750D02*
X117110Y-36542D01*
X116025Y-35709D01*
X115095Y-34458D01*
X114475Y-33000D01*
X114165Y-31333D01*
Y-29667D01*
X114475Y-28000D01*
X115095Y-26542D01*
X116025Y-25292D01*
X117110Y-24458D01*
X118350Y-24250D01*
X119590Y-24458D01*
X120675Y-25292D01*
X121605Y-26542D01*
X122225Y-28000D01*
X122535Y-29667D01*
Y-31333D01*
X122225Y-33000D01*
X121605Y-34458D01*
X120675Y-35709D01*
X119590Y-36542D01*
X118350Y-36750D01*
G01X127650D02*
Y-24250D01*
X131370D01*
X132610Y-24875D01*
X133540Y-26333D01*
X133850Y-28000D01*
X133540Y-29667D01*
X132765Y-30917D01*
X131370Y-31542D01*
X127650D01*
G01X155550Y-24250D02*
Y-36750D01*
G01X153380Y-28417D02*
X157720D01*
G01X167950Y-36750D02*
X167020Y-36542D01*
X166090Y-35709D01*
X165470Y-34250D01*
X165160Y-32583D01*
X165470Y-30917D01*
X166090Y-29458D01*
X167020Y-28625D01*
X167950Y-28417D01*
X168880Y-28625D01*
X169810Y-29458D01*
X170430Y-30917D01*
X170585Y-32583D01*
X170430Y-34250D01*
X169810Y-35709D01*
X168880Y-36542D01*
X167950Y-36750D01*
G01X193990Y-30083D02*
X194610Y-29458D01*
X195075Y-28417D01*
X195385Y-26958D01*
X195075Y-25708D01*
X194455Y-24875D01*
X193370Y-24250D01*
X189185D01*
Y-36750D01*
X194300D01*
X195385Y-35917D01*
X196005Y-34667D01*
X196315Y-33208D01*
X196005Y-31750D01*
X195075Y-30500D01*
X193990Y-30083D01*
X189185D01*
G01X205150Y-36750D02*
X203910Y-36542D01*
X202825Y-35709D01*
X201895Y-34458D01*
X201275Y-33000D01*
X200965Y-31333D01*
Y-29667D01*
X201275Y-28000D01*
X201895Y-26542D01*
X202825Y-25292D01*
X203910Y-24458D01*
X205150Y-24250D01*
X206390Y-24458D01*
X207475Y-25292D01*
X208405Y-26542D01*
X209025Y-28000D01*
X209335Y-29667D01*
Y-31333D01*
X209025Y-33000D01*
X208405Y-34458D01*
X207475Y-35709D01*
X206390Y-36542D01*
X205150Y-36750D01*
G01X217550Y-24250D02*
Y-36750D01*
G01X213985Y-24250D02*
X221115D01*
G01X229950D02*
Y-36750D01*
G01X226385Y-24250D02*
X233515D01*
G01X242350Y-36750D02*
X241110Y-36542D01*
X240025Y-35709D01*
X239095Y-34458D01*
X238475Y-33000D01*
X238165Y-31333D01*
Y-29667D01*
X238475Y-28000D01*
X239095Y-26542D01*
X240025Y-25292D01*
X241110Y-24458D01*
X242350Y-24250D01*
X243590Y-24458D01*
X244675Y-25292D01*
X245605Y-26542D01*
X246225Y-28000D01*
X246535Y-29667D01*
Y-31333D01*
X246225Y-33000D01*
X245605Y-34458D01*
X244675Y-35709D01*
X243590Y-36542D01*
X242350Y-36750D01*
G01X250720D02*
Y-24250D01*
X254750Y-34667D01*
X258780Y-24250D01*
Y-36750D01*
G01X-28125Y-61750D02*
X-24250Y-49250D01*
X-20375Y-61750D01*
G01X-21770Y-57375D02*
X-26730D01*
G01X-14950Y-49250D02*
Y-61750D01*
X-8750D01*
G01X-2550Y-49250D02*
Y-61750D01*
X3650D01*
G01X21940Y-49250D02*
Y-58208D01*
X22560Y-60084D01*
X23800Y-61333D01*
X25350Y-61750D01*
X26900Y-61333D01*
X28140Y-60084D01*
X28760Y-58208D01*
Y-49250D01*
G01X34185Y-61750D02*
Y-49250D01*
X41315Y-61750D01*
Y-49250D01*
G01X48290D02*
X52010D01*
G01X50150D02*
Y-61750D01*
G01X48290D02*
X52010D01*
G01X62550Y-49250D02*
Y-61750D01*
G01X58985Y-49250D02*
X66115D01*
G01X71695Y-60084D02*
X72935Y-61125D01*
X74330Y-61750D01*
X75570D01*
X76810Y-61125D01*
X77740Y-60084D01*
X78205Y-58625D01*
X77895Y-57167D01*
X77120Y-55917D01*
X75725Y-55083D01*
X73865Y-54667D01*
X72780Y-53833D01*
X72315Y-52375D01*
X72625Y-50917D01*
X73400Y-49875D01*
X74485Y-49250D01*
X75570D01*
X76655Y-49667D01*
X77585Y-50708D01*
G01X95875Y-61750D02*
X99750Y-49250D01*
X103625Y-61750D01*
G01X102230Y-57375D02*
X97270D01*
G01X109050Y-61750D02*
Y-49250D01*
X112925D01*
X114165Y-49875D01*
X114940Y-50708D01*
X115250Y-52375D01*
X114940Y-54042D01*
X114010Y-55083D01*
X112925Y-55708D01*
X109050D01*
G01X112925D02*
X115250Y-61750D01*
G01X127650D02*
X121450D01*
Y-49250D01*
X127650D01*
G01X125170Y-55292D02*
X121450D01*
G01X147490Y-49250D02*
X151210D01*
G01X149350D02*
Y-61750D01*
G01X147490D02*
X151210D01*
G01X158185D02*
Y-49250D01*
X165315Y-61750D01*
Y-49250D01*
G01X182520Y-61750D02*
Y-49250D01*
X186550Y-59667D01*
X190580Y-49250D01*
Y-61750D01*
G01X197090Y-49250D02*
X200810D01*
G01X198950D02*
Y-61750D01*
G01X197090D02*
X200810D01*
G01X208250Y-49250D02*
Y-61750D01*
X214450D01*
G01X220495Y-60084D02*
X221735Y-61125D01*
X223130Y-61750D01*
X224370D01*
X225610Y-61125D01*
X226540Y-60084D01*
X227005Y-58625D01*
X226695Y-57167D01*
X225920Y-55917D01*
X224525Y-55083D01*
X222665Y-54667D01*
X221580Y-53833D01*
X221115Y-52375D01*
X221425Y-50917D01*
X222200Y-49875D01*
X223285Y-49250D01*
X224370D01*
X225455Y-49667D01*
X226385Y-50708D01*
G01X0Y0D02*
Y160000D01*
X160000D01*
Y0D01*
X0D01*
G01Y169843D02*
Y178843D01*
G01X80000Y169000D02*
X0D01*
G01X15748Y171460D02*
X0Y169000D01*
X15748Y166540D01*
Y171460D01*
G01X42400Y-68000D02*
Y-118000D01*
G01X49000Y175250D02*
Y187750D01*
X47140Y185250D01*
G01Y175250D02*
X50860D01*
G01X58455Y180458D02*
X59540Y181917D01*
X60470Y182750D01*
X61710Y183167D01*
X62795Y182750D01*
X63570Y181917D01*
X64190Y180667D01*
X64345Y179208D01*
X64190Y177958D01*
X63570Y176708D01*
X62640Y175667D01*
X61555Y175250D01*
X60315Y175667D01*
X59230Y176916D01*
X58610Y178792D01*
X58455Y180875D01*
X58765Y183583D01*
X59230Y185042D01*
X60005Y186500D01*
X61090Y187542D01*
X62175Y187750D01*
X63260Y187333D01*
X64035Y186292D01*
G01X73800Y187750D02*
X72560Y187333D01*
X71630Y186292D01*
X71010Y185042D01*
X70545Y183375D01*
X70390Y181500D01*
X70545Y179625D01*
X71010Y177958D01*
X71630Y176708D01*
X72560Y175667D01*
X73800Y175250D01*
X75040Y175667D01*
X75970Y176708D01*
X76590Y177958D01*
X77055Y179625D01*
X77210Y181500D01*
X77055Y183375D01*
X76590Y185042D01*
X75970Y186292D01*
X75040Y187333D01*
X73800Y187750D01*
G01X86200D02*
X84960Y187333D01*
X84030Y186292D01*
X83410Y185042D01*
X82945Y183375D01*
X82790Y181500D01*
X82945Y179625D01*
X83410Y177958D01*
X84030Y176708D01*
X84960Y175667D01*
X86200Y175250D01*
X87440Y175667D01*
X88370Y176708D01*
X88990Y177958D01*
X89455Y179625D01*
X89610Y181500D01*
X89455Y183375D01*
X88990Y185042D01*
X88370Y186292D01*
X87440Y187333D01*
X86200Y187750D01*
G01X98600Y174833D02*
X98290Y175042D01*
Y175458D01*
X98600Y175667D01*
X98910Y175458D01*
Y175042D01*
X98600Y174833D01*
G01X111000Y187750D02*
X109760Y187333D01*
X108830Y186292D01*
X108210Y185042D01*
X107745Y183375D01*
X107590Y181500D01*
X107745Y179625D01*
X108210Y177958D01*
X108830Y176708D01*
X109760Y175667D01*
X111000Y175250D01*
X112240Y175667D01*
X113170Y176708D01*
X113790Y177958D01*
X114255Y179625D01*
X114410Y181500D01*
X114255Y183375D01*
X113790Y185042D01*
X113170Y186292D01*
X112240Y187333D01*
X111000Y187750D01*
G01X71540Y-86750D02*
Y-74250D01*
X74640D01*
X75880Y-74875D01*
X76810Y-75708D01*
X77585Y-76958D01*
X78205Y-78417D01*
X78360Y-80500D01*
X78205Y-82583D01*
X77585Y-84042D01*
X76810Y-85292D01*
X75880Y-86125D01*
X74640Y-86750D01*
X71540D01*
G01X84250D02*
Y-74250D01*
X88125D01*
X89365Y-74875D01*
X90140Y-75708D01*
X90450Y-77375D01*
X90140Y-79042D01*
X89210Y-80083D01*
X88125Y-80708D01*
X84250D01*
G01X88125D02*
X90450Y-86750D01*
G01X97890Y-74250D02*
X101610D01*
G01X99750D02*
Y-86750D01*
G01X97890D02*
X101610D01*
G01X109050Y-74250D02*
Y-86750D01*
X115250D01*
G01X121450Y-74250D02*
Y-86750D01*
X127650D01*
G01X140050D02*
X133850D01*
Y-74250D01*
X140050D01*
G01X137570Y-80292D02*
X133850D01*
G01X145940Y-86750D02*
Y-74250D01*
X149040D01*
X150280Y-74875D01*
X151210Y-75708D01*
X151985Y-76958D01*
X152605Y-78417D01*
X152760Y-80500D01*
X152605Y-82583D01*
X151985Y-84042D01*
X151210Y-85292D01*
X150280Y-86125D01*
X149040Y-86750D01*
X145940D01*
G01X157100Y-90917D02*
X166400D01*
G01X170895Y-85084D02*
X172135Y-86125D01*
X173530Y-86750D01*
X174770D01*
X176010Y-86125D01*
X176940Y-85084D01*
X177405Y-83625D01*
X177095Y-82167D01*
X176320Y-80917D01*
X174925Y-80083D01*
X173065Y-79667D01*
X171980Y-78833D01*
X171515Y-77375D01*
X171825Y-75917D01*
X172600Y-74875D01*
X173685Y-74250D01*
X174770D01*
X175855Y-74667D01*
X176785Y-75708D01*
G01X184690Y-74250D02*
X188410D01*
G01X186550D02*
Y-86750D01*
G01X184690D02*
X188410D01*
G01X196005Y-74250D02*
X201895D01*
X196005Y-86750D01*
X201895D01*
G01X214450D02*
X208250D01*
Y-74250D01*
X214450D01*
G01X211970Y-80292D02*
X208250D01*
G01X80000Y169000D02*
X160000D01*
G01X141135Y-107583D02*
X145165D01*
G01X169843Y0D02*
X194843D01*
G01X178750Y52000D02*
X166250D01*
X168750Y50140D01*
G01X178750D02*
Y53860D01*
G01X173542Y61455D02*
X172083Y62540D01*
X171250Y63470D01*
X170833Y64710D01*
X171250Y65795D01*
X172083Y66570D01*
X173333Y67190D01*
X174792Y67345D01*
X176042Y67190D01*
X177292Y66570D01*
X178333Y65640D01*
X178750Y64555D01*
X178333Y63315D01*
X177084Y62230D01*
X175208Y61610D01*
X173125Y61455D01*
X170417Y61765D01*
X168958Y62230D01*
X167500Y63005D01*
X166458Y64090D01*
X166250Y65175D01*
X166667Y66260D01*
X167708Y67035D01*
G01X166250Y76800D02*
X166667Y75560D01*
X167708Y74630D01*
X168958Y74010D01*
X170625Y73545D01*
X172500Y73390D01*
X174375Y73545D01*
X176042Y74010D01*
X177292Y74630D01*
X178333Y75560D01*
X178750Y76800D01*
X178333Y78040D01*
X177292Y78970D01*
X176042Y79590D01*
X174375Y80055D01*
X172500Y80210D01*
X170625Y80055D01*
X168958Y79590D01*
X167708Y78970D01*
X166667Y78040D01*
X166250Y76800D01*
G01Y89200D02*
X166667Y87960D01*
X167708Y87030D01*
X168958Y86410D01*
X170625Y85945D01*
X172500Y85790D01*
X174375Y85945D01*
X176042Y86410D01*
X177292Y87030D01*
X178333Y87960D01*
X178750Y89200D01*
X178333Y90440D01*
X177292Y91370D01*
X176042Y91990D01*
X174375Y92455D01*
X172500Y92610D01*
X170625Y92455D01*
X168958Y91990D01*
X167708Y91370D01*
X166667Y90440D01*
X166250Y89200D01*
G01X179167Y101600D02*
X178958Y101290D01*
X178542D01*
X178333Y101600D01*
X178542Y101910D01*
X178958D01*
X179167Y101600D01*
G01X166250Y114000D02*
X166667Y112760D01*
X167708Y111830D01*
X168958Y111210D01*
X170625Y110745D01*
X172500Y110590D01*
X174375Y110745D01*
X176042Y111210D01*
X177292Y111830D01*
X178333Y112760D01*
X178750Y114000D01*
X178333Y115240D01*
X177292Y116170D01*
X176042Y116790D01*
X174375Y117255D01*
X172500Y117410D01*
X170625Y117255D01*
X168958Y116790D01*
X167708Y116170D01*
X166667Y115240D01*
X166250Y114000D01*
G01X160000Y169843D02*
Y178843D01*
G01X144252Y166540D02*
X160000Y169000D01*
X144252Y171460D01*
Y166540D01*
G01X169843Y160000D02*
X194843D01*
G01X185000Y83000D02*
Y0D01*
G01X182540Y15748D02*
X185000Y0D01*
X187460Y15748D01*
X182540D01*
G01X185000Y83000D02*
Y160000D01*
G01X187460Y144252D02*
X185000Y160000D01*
X182540Y144252D01*
X187460D01*
G01X231900Y-2667D02*
Y-5167D01*
G01X231287Y-2667D02*
X232513D01*
G01X234100Y-5167D02*
X233887Y-5125D01*
X233700Y-4959D01*
X233540Y-4709D01*
X233433Y-4417D01*
X233380Y-4084D01*
Y-3750D01*
X233433Y-3417D01*
X233540Y-3125D01*
X233700Y-2875D01*
X233887Y-2709D01*
X234100Y-2667D01*
X234313Y-2709D01*
X234500Y-2875D01*
X234660Y-3125D01*
X234767Y-3417D01*
X234820Y-3750D01*
Y-4084D01*
X234767Y-4417D01*
X234660Y-4709D01*
X234500Y-4959D01*
X234313Y-5125D01*
X234100Y-5167D01*
G01X236300Y-2667D02*
Y-5167D01*
G01X235687Y-2667D02*
X236913D01*
G01X237833Y-5167D02*
X238500Y-2667D01*
X239167Y-5167D01*
G01X238927Y-4292D02*
X238073D01*
G01X240167Y-2667D02*
Y-5167D01*
X241233D01*
G01X245100Y-2667D02*
Y-5167D01*
G01X244487Y-2667D02*
X245713D01*
G01X246740Y-5167D02*
Y-2667D01*
G01X247860D02*
Y-5167D01*
G01Y-3917D02*
X246740D01*
G01X249180Y-2667D02*
X249820D01*
G01X249500D02*
Y-5167D01*
G01X249180D02*
X249820D01*
G01X252287Y-2875D02*
X252127Y-2750D01*
X251940Y-2667D01*
X251727D01*
X251487Y-2792D01*
X251300Y-3000D01*
X251167Y-3250D01*
X251060Y-3667D01*
X251033Y-4042D01*
X251087Y-4417D01*
X251167Y-4667D01*
X251327Y-4917D01*
X251513Y-5084D01*
X251700Y-5167D01*
X251887D01*
X252073Y-5084D01*
X252233Y-4959D01*
X252367Y-4792D01*
G01X253313Y-5167D02*
Y-2667D01*
G01X254327D02*
X253313Y-4209D01*
G01X254487Y-5167D02*
X253767Y-3500D01*
G01X255487Y-5167D02*
Y-2667D01*
X256713Y-5167D01*
Y-2667D01*
G01X258833Y-5167D02*
X257767D01*
Y-2667D01*
X258833D01*
G01X258407Y-3875D02*
X257767D01*
G01X259940Y-4834D02*
X260153Y-5042D01*
X260393Y-5167D01*
X260607D01*
X260820Y-5042D01*
X260980Y-4834D01*
X261060Y-4542D01*
X261007Y-4250D01*
X260873Y-4000D01*
X260633Y-3834D01*
X260313Y-3750D01*
X260127Y-3584D01*
X260047Y-3292D01*
X260100Y-3000D01*
X260233Y-2792D01*
X260420Y-2667D01*
X260607D01*
X260793Y-2750D01*
X260953Y-2959D01*
G01X262140Y-4834D02*
X262353Y-5042D01*
X262593Y-5167D01*
X262807D01*
X263020Y-5042D01*
X263180Y-4834D01*
X263260Y-4542D01*
X263207Y-4250D01*
X263073Y-4000D01*
X262833Y-3834D01*
X262513Y-3750D01*
X262327Y-3584D01*
X262247Y-3292D01*
X262300Y-3000D01*
X262433Y-2792D01*
X262620Y-2667D01*
X262807D01*
X262993Y-2750D01*
X263153Y-2959D01*
G01X266593Y-4125D02*
X266780Y-3834D01*
X266940Y-3667D01*
X267153Y-3584D01*
X267340Y-3667D01*
X267473Y-3834D01*
X267580Y-4084D01*
X267607Y-4375D01*
X267580Y-4625D01*
X267473Y-4875D01*
X267313Y-5084D01*
X267127Y-5167D01*
X266913Y-5084D01*
X266727Y-4834D01*
X266620Y-4459D01*
X266593Y-4042D01*
X266647Y-3500D01*
X266727Y-3209D01*
X266860Y-2917D01*
X267047Y-2709D01*
X267233Y-2667D01*
X267420Y-2750D01*
X267553Y-2959D01*
G01X269620Y-5167D02*
Y-2667D01*
X268633Y-4459D01*
X269967D01*
G01X273007Y-5167D02*
Y-2667D01*
X273700Y-4750D01*
X274393Y-2667D01*
Y-5167D01*
G01X275580Y-2667D02*
X276220D01*
G01X275900D02*
Y-5167D01*
G01X275580D02*
X276220D01*
G01X277567Y-2667D02*
Y-5167D01*
X278633D01*
G01X226913Y-667D02*
Y1833D01*
X227447D01*
X227660Y1708D01*
X227820Y1541D01*
X227953Y1291D01*
X228060Y1000D01*
X228087Y583D01*
X228060Y166D01*
X227953Y-125D01*
X227820Y-375D01*
X227660Y-542D01*
X227447Y-667D01*
X226913D01*
G01X230233D02*
X229167D01*
Y1833D01*
X230233D01*
G01X229807Y625D02*
X229167D01*
G01X231340Y-334D02*
X231553Y-542D01*
X231793Y-667D01*
X232007D01*
X232220Y-542D01*
X232380Y-334D01*
X232460Y-42D01*
X232407Y250D01*
X232273Y500D01*
X232033Y666D01*
X231713Y750D01*
X231527Y916D01*
X231447Y1208D01*
X231500Y1500D01*
X231633Y1708D01*
X231820Y1833D01*
X232007D01*
X232193Y1750D01*
X232353Y1541D01*
G01X233780Y1833D02*
X234420D01*
G01X234100D02*
Y-667D01*
G01X233780D02*
X234420D01*
G01X236460Y583D02*
X236993D01*
Y-167D01*
X236833Y-417D01*
X236647Y-584D01*
X236380Y-667D01*
X236113Y-584D01*
X235927Y-417D01*
X235767Y-167D01*
X235660Y125D01*
X235607Y458D01*
Y750D01*
X235660Y1000D01*
X235767Y1291D01*
X235927Y1541D01*
X236087Y1708D01*
X236300Y1833D01*
X236487D01*
X236700Y1750D01*
X236860Y1583D01*
G01X237887Y-667D02*
Y1833D01*
X239113Y-667D01*
Y1833D01*
G01X243487Y1625D02*
X243327Y1750D01*
X243140Y1833D01*
X242927D01*
X242687Y1708D01*
X242500Y1500D01*
X242367Y1250D01*
X242260Y833D01*
X242233Y458D01*
X242287Y83D01*
X242367Y-167D01*
X242527Y-417D01*
X242713Y-584D01*
X242900Y-667D01*
X243087D01*
X243273Y-584D01*
X243433Y-459D01*
X243567Y-292D01*
G01X244567Y-667D02*
Y1833D01*
X245233D01*
X245447Y1708D01*
X245580Y1541D01*
X245633Y1208D01*
X245580Y875D01*
X245420Y666D01*
X245233Y541D01*
X244567D01*
G01X245233D02*
X245633Y-667D01*
G01X247300D02*
X247087Y-625D01*
X246900Y-459D01*
X246740Y-209D01*
X246633Y83D01*
X246580Y416D01*
Y750D01*
X246633Y1083D01*
X246740Y1375D01*
X246900Y1625D01*
X247087Y1791D01*
X247300Y1833D01*
X247513Y1791D01*
X247700Y1625D01*
X247860Y1375D01*
X247967Y1083D01*
X248020Y750D01*
Y416D01*
X247967Y83D01*
X247860Y-209D01*
X247700Y-459D01*
X247513Y-625D01*
X247300Y-667D01*
G01X248940Y-334D02*
X249153Y-542D01*
X249393Y-667D01*
X249607D01*
X249820Y-542D01*
X249980Y-334D01*
X250060Y-42D01*
X250007Y250D01*
X249873Y500D01*
X249633Y666D01*
X249313Y750D01*
X249127Y916D01*
X249047Y1208D01*
X249100Y1500D01*
X249233Y1708D01*
X249420Y1833D01*
X249607D01*
X249793Y1750D01*
X249953Y1541D01*
G01X251140Y-334D02*
X251353Y-542D01*
X251593Y-667D01*
X251807D01*
X252020Y-542D01*
X252180Y-334D01*
X252260Y-42D01*
X252207Y250D01*
X252073Y500D01*
X251833Y666D01*
X251513Y750D01*
X251327Y916D01*
X251247Y1208D01*
X251300Y1500D01*
X251433Y1708D01*
X251620Y1833D01*
X251807D01*
X251993Y1750D01*
X252153Y1541D01*
G01X255540Y-334D02*
X255753Y-542D01*
X255993Y-667D01*
X256207D01*
X256420Y-542D01*
X256580Y-334D01*
X256660Y-42D01*
X256607Y250D01*
X256473Y500D01*
X256233Y666D01*
X255913Y750D01*
X255727Y916D01*
X255647Y1208D01*
X255700Y1500D01*
X255833Y1708D01*
X256020Y1833D01*
X256207D01*
X256393Y1750D01*
X256553Y1541D01*
G01X258833Y-667D02*
X257767D01*
Y1833D01*
X258833D01*
G01X258407Y625D02*
X257767D01*
G01X261087Y1625D02*
X260927Y1750D01*
X260740Y1833D01*
X260527D01*
X260287Y1708D01*
X260100Y1500D01*
X259967Y1250D01*
X259860Y833D01*
X259833Y458D01*
X259887Y83D01*
X259967Y-167D01*
X260127Y-417D01*
X260313Y-584D01*
X260500Y-667D01*
X260687D01*
X260873Y-584D01*
X261033Y-459D01*
X261167Y-292D01*
G01X262700Y1833D02*
Y-667D01*
G01X262087Y1833D02*
X263313D01*
G01X264580D02*
X265220D01*
G01X264900D02*
Y-667D01*
G01X264580D02*
X265220D01*
G01X267100D02*
X266887Y-625D01*
X266700Y-459D01*
X266540Y-209D01*
X266433Y83D01*
X266380Y416D01*
Y750D01*
X266433Y1083D01*
X266540Y1375D01*
X266700Y1625D01*
X266887Y1791D01*
X267100Y1833D01*
X267313Y1791D01*
X267500Y1625D01*
X267660Y1375D01*
X267767Y1083D01*
X267820Y750D01*
Y416D01*
X267767Y83D01*
X267660Y-209D01*
X267500Y-459D01*
X267313Y-625D01*
X267100Y-667D01*
G01X268687D02*
Y1833D01*
X269913Y-667D01*
Y1833D01*
G01X274287Y1625D02*
X274127Y1750D01*
X273940Y1833D01*
X273727D01*
X273487Y1708D01*
X273300Y1500D01*
X273167Y1250D01*
X273060Y833D01*
X273033Y458D01*
X273087Y83D01*
X273167Y-167D01*
X273327Y-417D01*
X273513Y-584D01*
X273700Y-667D01*
X273887D01*
X274073Y-584D01*
X274233Y-459D01*
X274367Y-292D01*
G01X275340Y-667D02*
Y1833D01*
G01X276460D02*
Y-667D01*
G01Y583D02*
X275340D01*
G01X277433Y-667D02*
X278100Y1833D01*
X278767Y-667D01*
G01X278527Y208D02*
X277673D01*
G01X279767Y-667D02*
Y1833D01*
X280433D01*
X280647Y1708D01*
X280780Y1541D01*
X280833Y1208D01*
X280780Y875D01*
X280620Y666D01*
X280433Y541D01*
X279767D01*
G01X280433D02*
X280833Y-667D01*
G01X282500Y1833D02*
Y-667D01*
G01X281887Y1833D02*
X283113D01*
G01X225600Y-1500D02*
X227200D01*
G01X227800D02*
X229400D01*
G01X230000D02*
X231600D01*
G01X232200D02*
X233800D01*
G01X234400D02*
X236000D01*
G01X236600D02*
X238200D01*
G01X238800D02*
X240400D01*
G01X241000D02*
X242600D01*
G01X243200D02*
X244800D01*
G01X245400D02*
X247000D01*
G01X247600D02*
X249200D01*
G01X249800D02*
X251400D01*
G01X252000D02*
X253600D01*
G01X254200D02*
X255800D01*
G01X256400D02*
X258000D01*
G01X258600D02*
X260200D01*
G01X260800D02*
X262400D01*
G01X263000D02*
X264600D01*
G01X265200D02*
X266800D01*
G01X267400D02*
X269000D01*
G01X269600D02*
X271200D01*
G01X271800D02*
X273400D01*
G01X274000D02*
X275600D01*
G01X276200D02*
X277800D01*
G01X278400D02*
X280000D01*
G01X280600D02*
X282200D01*
G01X282800D02*
X284400D01*
G01X225000Y11832D02*
Y205892D01*
X285000D01*
Y11832D01*
X225000D01*
G01X243900Y-68000D02*
Y-118000D01*
G01X252500Y211361D02*
X250000D01*
X250500Y211041D01*
G01X252500D02*
Y211681D01*
G01X251667Y213214D02*
Y213908D01*
G01X250417Y215254D02*
X250167Y215414D01*
X250042Y215601D01*
X250000Y215814D01*
X250083Y216081D01*
X250292Y216268D01*
X250542Y216321D01*
X250792Y216294D01*
X251000Y216188D01*
X251417Y215654D01*
X251708Y215414D01*
X252125Y215254D01*
X252500Y215201D01*
Y216321D01*
G01X273350Y-111750D02*
Y-99250D01*
X277070D01*
X278310Y-99875D01*
X279240Y-101333D01*
X279550Y-103000D01*
X279240Y-104667D01*
X278465Y-105917D01*
X277070Y-106542D01*
X273350D01*
G01X285750Y-99250D02*
Y-111750D01*
X291950D01*
G01X297375D02*
X301250Y-99250D01*
X305125Y-111750D01*
G01X303730Y-107375D02*
X298770D01*
G01X313650Y-99250D02*
Y-111750D01*
G01X310085Y-99250D02*
X317215D01*
G01X329150Y-111750D02*
X322950D01*
Y-99250D01*
X329150D01*
G01X326670Y-105292D02*
X322950D01*
G01X335040Y-111750D02*
Y-99250D01*
X338140D01*
X339380Y-99875D01*
X340310Y-100708D01*
X341085Y-101958D01*
X341705Y-103417D01*
X341860Y-105500D01*
X341705Y-107583D01*
X341085Y-109042D01*
X340310Y-110292D01*
X339380Y-111125D01*
X338140Y-111750D01*
X335040D01*
G01X273350Y-86750D02*
Y-74250D01*
X277070D01*
X278310Y-74875D01*
X279240Y-76333D01*
X279550Y-78000D01*
X279240Y-79667D01*
X278465Y-80917D01*
X277070Y-81542D01*
X273350D01*
G01X285750Y-74250D02*
Y-86750D01*
X291950D01*
G01X297375D02*
X301250Y-74250D01*
X305125Y-86750D01*
G01X303730Y-82375D02*
X298770D01*
G01X313650Y-74250D02*
Y-86750D01*
G01X310085Y-74250D02*
X317215D01*
G01X329150Y-86750D02*
X322950D01*
Y-74250D01*
X329150D01*
G01X326670Y-80292D02*
X322950D01*
G01X335040Y-86750D02*
Y-74250D01*
X338140D01*
X339380Y-74875D01*
X340310Y-75708D01*
X341085Y-76958D01*
X341705Y-78417D01*
X341860Y-80500D01*
X341705Y-82583D01*
X341085Y-84042D01*
X340310Y-85292D01*
X339380Y-86125D01*
X338140Y-86750D01*
X335040D01*
G01X287467Y10999D02*
Y8499D01*
X288533D01*
G01X289693Y10582D02*
X289853Y10832D01*
X290040Y10957D01*
X290253Y10999D01*
X290520Y10916D01*
X290707Y10707D01*
X290760Y10457D01*
X290733Y10207D01*
X290627Y9999D01*
X290093Y9582D01*
X289853Y9291D01*
X289693Y8874D01*
X289640Y8499D01*
X290760D01*
G01X294813Y9832D02*
X294920Y9957D01*
X295000Y10166D01*
X295053Y10457D01*
X295000Y10707D01*
X294893Y10874D01*
X294707Y10999D01*
X293987D01*
Y8499D01*
X294867D01*
X295053Y8666D01*
X295160Y8916D01*
X295213Y9207D01*
X295160Y9499D01*
X295000Y9749D01*
X294813Y9832D01*
X293987D01*
G01X296800Y8499D02*
X296587Y8541D01*
X296400Y8707D01*
X296240Y8957D01*
X296133Y9249D01*
X296080Y9582D01*
Y9916D01*
X296133Y10249D01*
X296240Y10541D01*
X296400Y10791D01*
X296587Y10957D01*
X296800Y10999D01*
X297013Y10957D01*
X297200Y10791D01*
X297360Y10541D01*
X297467Y10249D01*
X297520Y9916D01*
Y9582D01*
X297467Y9249D01*
X297360Y8957D01*
X297200Y8707D01*
X297013Y8541D01*
X296800Y8499D01*
G01X299000Y10999D02*
Y8499D01*
G01X298387Y10999D02*
X299613D01*
G01X301200D02*
Y8499D01*
G01X300587Y10999D02*
X301813D01*
G01X303400Y8499D02*
X303187Y8541D01*
X303000Y8707D01*
X302840Y8957D01*
X302733Y9249D01*
X302680Y9582D01*
Y9916D01*
X302733Y10249D01*
X302840Y10541D01*
X303000Y10791D01*
X303187Y10957D01*
X303400Y10999D01*
X303613Y10957D01*
X303800Y10791D01*
X303960Y10541D01*
X304067Y10249D01*
X304120Y9916D01*
Y9582D01*
X304067Y9249D01*
X303960Y8957D01*
X303800Y8707D01*
X303613Y8541D01*
X303400Y8499D01*
G01X304907D02*
Y10999D01*
X305600Y8916D01*
X306293Y10999D01*
Y8499D01*
G01X310587Y10791D02*
X310427Y10916D01*
X310240Y10999D01*
X310027D01*
X309787Y10874D01*
X309600Y10666D01*
X309467Y10416D01*
X309360Y9999D01*
X309333Y9624D01*
X309387Y9249D01*
X309467Y8999D01*
X309627Y8749D01*
X309813Y8582D01*
X310000Y8499D01*
X310187D01*
X310373Y8582D01*
X310533Y8707D01*
X310667Y8874D01*
G01X312200Y8499D02*
X311987Y8541D01*
X311800Y8707D01*
X311640Y8957D01*
X311533Y9249D01*
X311480Y9582D01*
Y9916D01*
X311533Y10249D01*
X311640Y10541D01*
X311800Y10791D01*
X311987Y10957D01*
X312200Y10999D01*
X312413Y10957D01*
X312600Y10791D01*
X312760Y10541D01*
X312867Y10249D01*
X312920Y9916D01*
Y9582D01*
X312867Y9249D01*
X312760Y8957D01*
X312600Y8707D01*
X312413Y8541D01*
X312200Y8499D01*
G01X313787D02*
Y10999D01*
X315013Y8499D01*
Y10999D01*
G01X316013Y8499D02*
Y10999D01*
X316547D01*
X316760Y10874D01*
X316920Y10707D01*
X317053Y10457D01*
X317160Y10166D01*
X317187Y9749D01*
X317160Y9332D01*
X317053Y9041D01*
X316920Y8791D01*
X316760Y8624D01*
X316547Y8499D01*
X316013D01*
G01X318213Y10999D02*
Y9207D01*
X318320Y8832D01*
X318533Y8582D01*
X318800Y8499D01*
X319067Y8582D01*
X319280Y8832D01*
X319387Y9207D01*
Y10999D01*
G01X321587Y10791D02*
X321427Y10916D01*
X321240Y10999D01*
X321027D01*
X320787Y10874D01*
X320600Y10666D01*
X320467Y10416D01*
X320360Y9999D01*
X320333Y9624D01*
X320387Y9249D01*
X320467Y8999D01*
X320627Y8749D01*
X320813Y8582D01*
X321000Y8499D01*
X321187D01*
X321373Y8582D01*
X321533Y8707D01*
X321667Y8874D01*
G01X323200Y10999D02*
Y8499D01*
G01X322587Y10999D02*
X323813D01*
G01X325400Y8499D02*
X325187Y8541D01*
X325000Y8707D01*
X324840Y8957D01*
X324733Y9249D01*
X324680Y9582D01*
Y9916D01*
X324733Y10249D01*
X324840Y10541D01*
X325000Y10791D01*
X325187Y10957D01*
X325400Y10999D01*
X325613Y10957D01*
X325800Y10791D01*
X325960Y10541D01*
X326067Y10249D01*
X326120Y9916D01*
Y9582D01*
X326067Y9249D01*
X325960Y8957D01*
X325800Y8707D01*
X325613Y8541D01*
X325400Y8499D01*
G01X327067D02*
Y10999D01*
X327733D01*
X327947Y10874D01*
X328080Y10707D01*
X328133Y10374D01*
X328080Y10041D01*
X327920Y9832D01*
X327733Y9707D01*
X327067D01*
G01X327733D02*
X328133Y8499D01*
G01X291813Y5083D02*
X292987Y6916D01*
G01X292400Y7249D02*
Y4749D01*
G01X292987Y5083D02*
X291813Y6916D01*
G01X291600Y5999D02*
X293200D01*
G01X298440Y5499D02*
X298653Y5291D01*
X298893Y5166D01*
X299107D01*
X299320Y5291D01*
X299480Y5499D01*
X299560Y5791D01*
X299507Y6083D01*
X299373Y6333D01*
X299133Y6499D01*
X298813Y6583D01*
X298627Y6749D01*
X298547Y7041D01*
X298600Y7333D01*
X298733Y7541D01*
X298920Y7666D01*
X299107D01*
X299293Y7583D01*
X299453Y7374D01*
G01X300613Y7666D02*
Y5874D01*
X300720Y5499D01*
X300933Y5249D01*
X301200Y5166D01*
X301467Y5249D01*
X301680Y5499D01*
X301787Y5874D01*
Y7666D01*
G01X302867Y5166D02*
Y7666D01*
X303533D01*
X303747Y7541D01*
X303880Y7374D01*
X303933Y7041D01*
X303880Y6708D01*
X303720Y6499D01*
X303533Y6374D01*
X302867D01*
G01X303533D02*
X303933Y5166D01*
G01X305093D02*
Y7666D01*
X306107D01*
G01X305733Y6458D02*
X305093D01*
G01X307133Y5166D02*
X307800Y7666D01*
X308467Y5166D01*
G01X308227Y6041D02*
X307373D01*
G01X310587Y7458D02*
X310427Y7583D01*
X310240Y7666D01*
X310027D01*
X309787Y7541D01*
X309600Y7333D01*
X309467Y7083D01*
X309360Y6666D01*
X309333Y6291D01*
X309387Y5916D01*
X309467Y5666D01*
X309627Y5416D01*
X309813Y5249D01*
X310000Y5166D01*
X310187D01*
X310373Y5249D01*
X310533Y5374D01*
X310667Y5541D01*
G01X312733Y5166D02*
X311667D01*
Y7666D01*
X312733D01*
G01X312307Y6458D02*
X311667D01*
G01X291813Y108779D02*
X292987Y110612D01*
G01X292400Y110945D02*
Y108445D01*
G01X292987Y108779D02*
X291813Y110612D01*
G01X291600Y109695D02*
X293200D01*
G01X298413Y108862D02*
Y111362D01*
X298947D01*
X299160Y111237D01*
X299320Y111070D01*
X299453Y110820D01*
X299560Y110529D01*
X299587Y110112D01*
X299560Y109695D01*
X299453Y109404D01*
X299320Y109154D01*
X299160Y108987D01*
X298947Y108862D01*
X298413D01*
G01X300880Y111362D02*
X301520D01*
G01X301200D02*
Y108862D01*
G01X300880D02*
X301520D01*
G01X303933D02*
X302867D01*
Y111362D01*
X303933D01*
G01X303507Y110154D02*
X302867D01*
G01X305067Y111362D02*
Y108862D01*
X306133D01*
G01X308333D02*
X307267D01*
Y111362D01*
X308333D01*
G01X307907Y110154D02*
X307267D01*
G01X310587Y111154D02*
X310427Y111279D01*
X310240Y111362D01*
X310027D01*
X309787Y111237D01*
X309600Y111029D01*
X309467Y110779D01*
X309360Y110362D01*
X309333Y109987D01*
X309387Y109612D01*
X309467Y109362D01*
X309627Y109112D01*
X309813Y108945D01*
X310000Y108862D01*
X310187D01*
X310373Y108945D01*
X310533Y109070D01*
X310667Y109237D01*
G01X312200Y111362D02*
Y108862D01*
G01X311587Y111362D02*
X312813D01*
G01X313867Y108862D02*
Y111362D01*
X314533D01*
X314747Y111237D01*
X314880Y111070D01*
X314933Y110737D01*
X314880Y110404D01*
X314720Y110195D01*
X314533Y110070D01*
X313867D01*
G01X314533D02*
X314933Y108862D01*
G01X316280Y111362D02*
X316920D01*
G01X316600D02*
Y108862D01*
G01X316280D02*
X316920D01*
G01X319387Y111154D02*
X319227Y111279D01*
X319040Y111362D01*
X318827D01*
X318587Y111237D01*
X318400Y111029D01*
X318267Y110779D01*
X318160Y110362D01*
X318133Y109987D01*
X318187Y109612D01*
X318267Y109362D01*
X318427Y109112D01*
X318613Y108945D01*
X318800Y108862D01*
X318987D01*
X319173Y108945D01*
X319333Y109070D01*
X319467Y109237D01*
G01X287467Y207228D02*
Y204728D01*
X288533D01*
G01X290200D02*
Y207228D01*
X289880Y206728D01*
G01Y204728D02*
X290520D01*
G01X294600Y207228D02*
Y204728D01*
G01X293987Y207228D02*
X295213D01*
G01X296800Y204728D02*
X296587Y204770D01*
X296400Y204936D01*
X296240Y205186D01*
X296133Y205478D01*
X296080Y205811D01*
Y206145D01*
X296133Y206478D01*
X296240Y206770D01*
X296400Y207020D01*
X296587Y207186D01*
X296800Y207228D01*
X297013Y207186D01*
X297200Y207020D01*
X297360Y206770D01*
X297467Y206478D01*
X297520Y206145D01*
Y205811D01*
X297467Y205478D01*
X297360Y205186D01*
X297200Y204936D01*
X297013Y204770D01*
X296800Y204728D01*
G01X298467D02*
Y207228D01*
X299107D01*
X299320Y207103D01*
X299480Y206811D01*
X299533Y206478D01*
X299480Y206145D01*
X299347Y205895D01*
X299107Y205770D01*
X298467D01*
G01X303987Y207020D02*
X303827Y207145D01*
X303640Y207228D01*
X303427D01*
X303187Y207103D01*
X303000Y206895D01*
X302867Y206645D01*
X302760Y206228D01*
X302733Y205853D01*
X302787Y205478D01*
X302867Y205228D01*
X303027Y204978D01*
X303213Y204811D01*
X303400Y204728D01*
X303587D01*
X303773Y204811D01*
X303933Y204936D01*
X304067Y205103D01*
G01X305600Y204728D02*
X305387Y204770D01*
X305200Y204936D01*
X305040Y205186D01*
X304933Y205478D01*
X304880Y205811D01*
Y206145D01*
X304933Y206478D01*
X305040Y206770D01*
X305200Y207020D01*
X305387Y207186D01*
X305600Y207228D01*
X305813Y207186D01*
X306000Y207020D01*
X306160Y206770D01*
X306267Y206478D01*
X306320Y206145D01*
Y205811D01*
X306267Y205478D01*
X306160Y205186D01*
X306000Y204936D01*
X305813Y204770D01*
X305600Y204728D01*
G01X307187D02*
Y207228D01*
X308413Y204728D01*
Y207228D01*
G01X309413Y204728D02*
Y207228D01*
X309947D01*
X310160Y207103D01*
X310320Y206936D01*
X310453Y206686D01*
X310560Y206395D01*
X310587Y205978D01*
X310560Y205561D01*
X310453Y205270D01*
X310320Y205020D01*
X310160Y204853D01*
X309947Y204728D01*
X309413D01*
G01X311613Y207228D02*
Y205436D01*
X311720Y205061D01*
X311933Y204811D01*
X312200Y204728D01*
X312467Y204811D01*
X312680Y205061D01*
X312787Y205436D01*
Y207228D01*
G01X314987Y207020D02*
X314827Y207145D01*
X314640Y207228D01*
X314427D01*
X314187Y207103D01*
X314000Y206895D01*
X313867Y206645D01*
X313760Y206228D01*
X313733Y205853D01*
X313787Y205478D01*
X313867Y205228D01*
X314027Y204978D01*
X314213Y204811D01*
X314400Y204728D01*
X314587D01*
X314773Y204811D01*
X314933Y204936D01*
X315067Y205103D01*
G01X316600Y207228D02*
Y204728D01*
G01X315987Y207228D02*
X317213D01*
G01X318800Y204728D02*
X318587Y204770D01*
X318400Y204936D01*
X318240Y205186D01*
X318133Y205478D01*
X318080Y205811D01*
Y206145D01*
X318133Y206478D01*
X318240Y206770D01*
X318400Y207020D01*
X318587Y207186D01*
X318800Y207228D01*
X319013Y207186D01*
X319200Y207020D01*
X319360Y206770D01*
X319467Y206478D01*
X319520Y206145D01*
Y205811D01*
X319467Y205478D01*
X319360Y205186D01*
X319200Y204936D01*
X319013Y204770D01*
X318800Y204728D01*
G01X320467D02*
Y207228D01*
X321133D01*
X321347Y207103D01*
X321480Y206936D01*
X321533Y206603D01*
X321480Y206270D01*
X321320Y206061D01*
X321133Y205936D01*
X320467D01*
G01X321133D02*
X321533Y204728D01*
G01X291813Y208811D02*
X292987Y210644D01*
G01X292400Y210977D02*
Y208477D01*
G01X292987Y208811D02*
X291813Y210644D01*
G01X291600Y209727D02*
X293200D01*
G01X298440Y209227D02*
X298653Y209019D01*
X298893Y208894D01*
X299107D01*
X299320Y209019D01*
X299480Y209227D01*
X299560Y209519D01*
X299507Y209811D01*
X299373Y210061D01*
X299133Y210227D01*
X298813Y210311D01*
X298627Y210477D01*
X298547Y210769D01*
X298600Y211061D01*
X298733Y211269D01*
X298920Y211394D01*
X299107D01*
X299293Y211311D01*
X299453Y211102D01*
G01X300613Y211394D02*
Y209602D01*
X300720Y209227D01*
X300933Y208977D01*
X301200Y208894D01*
X301467Y208977D01*
X301680Y209227D01*
X301787Y209602D01*
Y211394D01*
G01X302867Y208894D02*
Y211394D01*
X303533D01*
X303747Y211269D01*
X303880Y211102D01*
X303933Y210769D01*
X303880Y210436D01*
X303720Y210227D01*
X303533Y210102D01*
X302867D01*
G01X303533D02*
X303933Y208894D01*
G01X305093D02*
Y211394D01*
X306107D01*
G01X305733Y210186D02*
X305093D01*
G01X307133Y208894D02*
X307800Y211394D01*
X308467Y208894D01*
G01X308227Y209769D02*
X307373D01*
G01X310587Y211186D02*
X310427Y211311D01*
X310240Y211394D01*
X310027D01*
X309787Y211269D01*
X309600Y211061D01*
X309467Y210811D01*
X309360Y210394D01*
X309333Y210019D01*
X309387Y209644D01*
X309467Y209394D01*
X309627Y209144D01*
X309813Y208977D01*
X310000Y208894D01*
X310187D01*
X310373Y208977D01*
X310533Y209102D01*
X310667Y209269D01*
G01X312733Y208894D02*
X311667D01*
Y211394D01*
X312733D01*
G01X312307Y210186D02*
X311667D01*
G01X371000Y-68000D02*
Y-118000D01*
G01X403550Y-111750D02*
Y-99250D01*
X401690Y-101750D01*
G01Y-111750D02*
X405410D01*
G01X413315Y-110292D02*
X414400Y-111333D01*
X415640Y-111750D01*
X416880Y-111333D01*
X417965Y-110084D01*
X418740Y-108208D01*
X419050Y-106333D01*
Y-104042D01*
X418740Y-102167D01*
X417965Y-100500D01*
X417035Y-99667D01*
X415950Y-99250D01*
X414710Y-99667D01*
X413780Y-100500D01*
X413160Y-101750D01*
X412850Y-103417D01*
X413160Y-104875D01*
X413935Y-106333D01*
X414865Y-107167D01*
X415950Y-107375D01*
X417190Y-106959D01*
X418120Y-105917D01*
X419050Y-104042D01*
G01X397350Y-86750D02*
X396110Y-86542D01*
X395025Y-85709D01*
X394095Y-84458D01*
X393475Y-83000D01*
X393165Y-81333D01*
Y-79667D01*
X393475Y-78000D01*
X394095Y-76542D01*
X395025Y-75292D01*
X396110Y-74458D01*
X397350Y-74250D01*
X398590Y-74458D01*
X399675Y-75292D01*
X400605Y-76542D01*
X401225Y-78000D01*
X401535Y-79667D01*
Y-81333D01*
X401225Y-83000D01*
X400605Y-84458D01*
X399675Y-85709D01*
X398590Y-86542D01*
X397350Y-86750D01*
G01X398590Y-83417D02*
X400450Y-86750D01*
G01X409750Y-74250D02*
Y-86750D01*
G01X406185Y-74250D02*
X413315D01*
G01X422150Y-86750D02*
Y-81125D01*
X419050Y-74250D01*
G01X425250D02*
X422150Y-81125D01*
M02*
