G04 ================== begin FILE IDENTIFICATION RECORD ==================*
G04 Layout Name:  D:/ERS/allegro/p1_olteanu_rares.brd*
G04 Film Name:    SMTOP*
G04 File Format:  Gerber RS274X*
G04 File Origin:  Cadence Allegro 24.1-S001*
G04 Origin Date:  Sat Dec 14 12:07:02 2024*
G04 *
G04 Layer:  RIGID FLEX/ZONE_OUTLINE*
G04 Layer:  VIA CLASS/SOLDERMASK_TOP*
G04 Layer:  PIN/SOLDERMASK_TOP*
G04 Layer:  PACKAGE GEOMETRY/SOLDERMASK_TOP*
G04 Layer:  DRC ERROR CLASS/SOLDERMASK_TOP*
G04 Layer:  BOARD GEOMETRY/SOLDERMASK_TOP*
G04 *
G04 Offset:    (0.00 0.00)*
G04 Mirror:    No*
G04 Mode:      Positive*
G04 Rotation:  0*
G04 FullContactRelief:  No*
G04 UndefLineWidth:     0.10*
G04 ================== end FILE IDENTIFICATION RECORD ====================*
%FSLAX25Y25*MOIN*%
%IR0*IPPOS*OFA0.00000B0.00000*MIA0B0*SFA1.00000B1.00000*%
%ADD21R,.042X.114*%
%ADD12R,.076X.12*%
%ADD10C,.06*%
%ADD17C,.044*%
%ADD14R,.05512X.05512*%
%ADD20R,.22X.24*%
%ADD19R,.042X.03*%
%ADD18R,.03X.042*%
%ADD16R,.06X.05*%
%ADD13R,.065X.045*%
%ADD11R,.045X.065*%
%ADD15R,.084X.056*%
%LPD*%
G75*
G54D10*
X20000Y20000D03*
X140000Y140000D03*
G54D11*
X15260Y90000D03*
X22740D03*
Y103000D03*
X15260D03*
Y116000D03*
X22740D03*
Y128000D03*
X15260D03*
X53740Y28000D03*
X46260D03*
X41740Y73000D03*
X34260D03*
X41740Y86000D03*
X34260D03*
X49260Y104000D03*
X43260Y149000D03*
X50740D03*
X73740Y28000D03*
X66260D03*
X82740Y87000D03*
X75260D03*
X56740Y104000D03*
X71260Y106000D03*
X78740D03*
X100260Y72000D03*
X107740D03*
X140260Y57000D03*
X121260Y29000D03*
X128740D03*
X147740Y57000D03*
G54D20*
X139000Y80764D03*
G54D12*
X12000Y146000D03*
X22500D03*
X138000Y14000D03*
X148500D03*
G54D21*
X129984Y107339D03*
X139000D03*
X148016D03*
G54D13*
X43000Y11260D03*
Y18740D03*
X73000Y11260D03*
Y18740D03*
X58000Y11260D03*
Y18740D03*
X61000Y45260D03*
Y52740D03*
X76000Y45260D03*
Y52740D03*
X85000Y116260D03*
Y123740D03*
X104000Y11260D03*
Y18740D03*
X88000Y11260D03*
Y18740D03*
X107000Y82260D03*
X95000Y110740D03*
Y103260D03*
Y94740D03*
Y87260D03*
X107000Y89740D03*
Y122260D03*
Y129740D03*
X110000Y141260D03*
Y148740D03*
X129000Y141260D03*
Y148740D03*
G54D14*
X38472Y43173D03*
X47528D03*
X95472Y35173D03*
X104528D03*
G54D15*
X43000Y64827D03*
X100000Y56827D03*
G54D16*
X34000Y102063D03*
Y109937D03*
X149000Y44937D03*
Y37063D03*
G54D17*
X51998Y115002D03*
X49000Y92000D03*
X31000Y136000D03*
X84000Y56000D03*
X76000Y36000D03*
X58538Y60000D03*
X70000Y99000D03*
X74000Y116000D03*
X114000Y78000D03*
X108000Y65000D03*
X91000Y72000D03*
X95000Y121000D03*
X86000Y152000D03*
X140000Y27000D03*
X116000Y93000D03*
X119000Y104000D03*
X120000Y112305D03*
Y136418D03*
X143000Y151000D03*
G54D18*
X38000Y130331D03*
X41740Y121669D03*
X34260D03*
X75000Y63669D03*
X71260Y72331D03*
X78740D03*
X60000Y77331D03*
X63740Y68669D03*
X56260D03*
X62000Y83669D03*
X58260Y92331D03*
X65740D03*
X69000Y137669D03*
X65260Y146331D03*
X72740D03*
X66000Y120669D03*
X62260Y129331D03*
X69740D03*
X108000Y99669D03*
X104260Y108331D03*
X111740D03*
X121000Y40669D03*
X117260Y49331D03*
X124740D03*
X139000Y128331D03*
X142740Y119669D03*
X135260D03*
G54D19*
X98331Y138000D03*
X89669Y134260D03*
Y141740D03*
M02*
