G04 ================== begin FILE IDENTIFICATION RECORD ==================*
G04 Layout Name:  D:/ERS/allegro/p1_olteanu_rares.brd*
G04 Film Name:    SSTOP*
G04 File Format:  Gerber RS274X*
G04 File Origin:  Cadence Allegro 24.1-S001*
G04 Origin Date:  Sat Dec 14 12:07:02 2024*
G04 *
G04 Layer:  USER PART NUMBER/SILKSCREEN_TOP*
G04 Layer:  TOLERANCE/SILKSCREEN_TOP*
G04 Layer:  REF DES/SILKSCREEN_TOP*
G04 Layer:  PACKAGE GEOMETRY/SILKSCREEN_TOP*
G04 Layer:  DEVICE TYPE/SILKSCREEN_TOP*
G04 Layer:  COMPONENT VALUE/SILKSCREEN_TOP*
G04 Layer:  BOARD GEOMETRY/SILKSCREEN_TOP*
G04 *
G04 Offset:    (0.00 0.00)*
G04 Mirror:    No*
G04 Mode:      Positive*
G04 Rotation:  0*
G04 FullContactRelief:  No*
G04 UndefLineWidth:     0.10*
G04 ================== end FILE IDENTIFICATION RECORD ====================*
%FSLAX25Y25*MOIN*%
%IR0*IPPOS*OFA0.00000B0.00000*MIA0B0*SFA1.00000B1.00000*%
%ADD10C,.005*%
%ADD11C,.006*%
%ADD12C,.00984*%
%ADD13C,.00787*%
G75*
%LPD*%
G75*
G54D10*
G01X7000Y75850D02*
X7052Y76157D01*
X7258Y76425D01*
X7568Y76655D01*
X7930Y76808D01*
X8343Y76885D01*
X8757D01*
X9170Y76808D01*
X9532Y76655D01*
X9842Y76425D01*
X10048Y76157D01*
X10100Y75850D01*
X10048Y75543D01*
X9842Y75275D01*
X9532Y75045D01*
X9170Y74892D01*
X8757Y74815D01*
X8343D01*
X7930Y74892D01*
X7568Y75045D01*
X7258Y75275D01*
X7052Y75543D01*
X7000Y75850D01*
G01Y72750D02*
X10100D01*
G01Y69650D02*
X7000D01*
G01X9067Y70187D02*
Y69113D01*
G01X8395Y67125D02*
Y65898D01*
X8757Y66013D01*
X8963Y66205D01*
X9067Y66473D01*
X9015Y66742D01*
X8860Y66972D01*
X8498Y67125D01*
X8188Y67202D01*
X7878D01*
X7568Y67125D01*
X7258Y66933D01*
X7052Y66703D01*
X7000Y66435D01*
X7103Y66167D01*
X7413Y65898D01*
G01X7000Y62760D02*
X9067D01*
G01X8705D02*
X8912Y62913D01*
X9015Y63143D01*
X9067Y63412D01*
X8963Y63680D01*
X8757Y63910D01*
X8447Y64063D01*
X8033Y64140D01*
X7620Y64063D01*
X7310Y63910D01*
X7103Y63680D01*
X7000Y63412D01*
X7052Y63143D01*
X7207Y62913D01*
X7413Y62760D01*
G01X7000Y61002D02*
X9067D01*
G01X8550D02*
X8808Y60848D01*
X9015Y60618D01*
X9067Y60312D01*
X9015Y60043D01*
X8808Y59813D01*
X8447Y59698D01*
X7000D01*
G01X9067Y57902D02*
X7620D01*
X7258Y57748D01*
X7052Y57518D01*
X7000Y57250D01*
X7052Y56982D01*
X7258Y56752D01*
X7620Y56598D01*
G01X7000D02*
X9067D01*
G01X7000Y51817D02*
X10100D01*
Y50858D01*
X9945Y50552D01*
X9738Y50360D01*
X9325Y50283D01*
X8912Y50360D01*
X8653Y50590D01*
X8498Y50858D01*
Y51817D01*
G01Y50858D02*
X7000Y50283D01*
G01Y47260D02*
X9067D01*
G01X8705D02*
X8912Y47413D01*
X9015Y47643D01*
X9067Y47912D01*
X8963Y48180D01*
X8757Y48410D01*
X8447Y48563D01*
X8033Y48640D01*
X7620Y48563D01*
X7310Y48410D01*
X7103Y48180D01*
X7000Y47912D01*
X7052Y47643D01*
X7207Y47413D01*
X7413Y47260D01*
G01X7000Y45387D02*
X9067D01*
G01X8653D02*
X8860Y45195D01*
X9015Y45003D01*
X9067Y44735D01*
X9015Y44543D01*
X8860Y44313D01*
G01X8395Y42325D02*
Y41098D01*
X8757Y41213D01*
X8963Y41405D01*
X9067Y41673D01*
X9015Y41942D01*
X8860Y42172D01*
X8498Y42325D01*
X8188Y42402D01*
X7878D01*
X7568Y42325D01*
X7258Y42133D01*
X7052Y41903D01*
X7000Y41635D01*
X7103Y41367D01*
X7413Y41098D01*
G01X7362Y39225D02*
X7155Y39033D01*
X7000Y38765D01*
Y38535D01*
X7103Y38305D01*
X7258Y38152D01*
X7465Y38075D01*
X7775Y38113D01*
X7930Y38267D01*
X8240Y38957D01*
X8602Y39110D01*
X8860Y39033D01*
X9015Y38880D01*
X9067Y38650D01*
X9015Y38420D01*
X8860Y38190D01*
G01X8033Y36048D02*
Y35052D01*
G01X9842Y31607D02*
X9997Y31837D01*
X10100Y32105D01*
Y32412D01*
X9945Y32757D01*
X9687Y33025D01*
X9377Y33217D01*
X8860Y33370D01*
X8395Y33408D01*
X7930Y33332D01*
X7620Y33217D01*
X7310Y32987D01*
X7103Y32718D01*
X7000Y32450D01*
Y32182D01*
X7103Y31913D01*
X7258Y31683D01*
X7465Y31492D01*
G01X7000Y29887D02*
X9067D01*
G01X8653D02*
X8860Y29695D01*
X9015Y29503D01*
X9067Y29235D01*
X9015Y29043D01*
X8860Y28813D01*
G01X9067Y26250D02*
X7000D01*
G01X9893D02*
X9945Y26327D01*
X10048D01*
X10100Y26250D01*
X10048Y26173D01*
X9945D01*
X9893Y26250D01*
G01X7362Y23725D02*
X7155Y23533D01*
X7000Y23265D01*
Y23035D01*
X7103Y22805D01*
X7258Y22652D01*
X7465Y22575D01*
X7775Y22613D01*
X7930Y22767D01*
X8240Y23457D01*
X8602Y23610D01*
X8860Y23533D01*
X9015Y23380D01*
X9067Y23150D01*
X9015Y22920D01*
X8860Y22690D01*
G01X10100Y20050D02*
X7000D01*
G01X9067Y20587D02*
Y19513D01*
G01Y16950D02*
X7000D01*
G01X9893D02*
X9945Y17027D01*
X10048D01*
X10100Y16950D01*
X10048Y16873D01*
X9945D01*
X9893Y16950D01*
G01X7000Y13160D02*
X9067D01*
G01X8705D02*
X8912Y13313D01*
X9015Y13543D01*
X9067Y13812D01*
X8963Y14080D01*
X8757Y14310D01*
X8447Y14463D01*
X8033Y14540D01*
X7620Y14463D01*
X7310Y14310D01*
X7103Y14080D01*
X7000Y13812D01*
X7052Y13543D01*
X7207Y13313D01*
X7413Y13160D01*
G01X7000Y11402D02*
X9067D01*
G01X8550D02*
X8808Y11248D01*
X9015Y11018D01*
X9067Y10712D01*
X9015Y10443D01*
X8808Y10213D01*
X8447Y10098D01*
X7000D01*
G01X21842Y75007D02*
X21997Y75237D01*
X22100Y75505D01*
Y75812D01*
X21945Y76157D01*
X21687Y76425D01*
X21377Y76617D01*
X20860Y76770D01*
X20395Y76808D01*
X19930Y76732D01*
X19620Y76617D01*
X19310Y76387D01*
X19103Y76118D01*
X19000Y75850D01*
Y75582D01*
X19103Y75313D01*
X19258Y75083D01*
X19465Y74892D01*
G01X19000Y71983D02*
Y73517D01*
X22100D01*
Y71983D01*
G01X20602Y72597D02*
Y73517D01*
G01X19000Y70378D02*
X22100D01*
Y68922D01*
G01X20602Y69458D02*
Y70378D01*
G01X21583Y67278D02*
X21893Y67048D01*
X22048Y66780D01*
X22100Y66473D01*
X21997Y66090D01*
X21738Y65822D01*
X21428Y65745D01*
X21118Y65783D01*
X20860Y65937D01*
X20343Y66703D01*
X19982Y67048D01*
X19465Y67278D01*
X19000Y67355D01*
Y65745D01*
G01X20033Y63948D02*
Y62952D01*
G01X19000Y61117D02*
X22100D01*
Y60197D01*
X21945Y59890D01*
X21583Y59660D01*
X21170Y59583D01*
X20757Y59660D01*
X20447Y59852D01*
X20292Y60197D01*
Y61117D01*
G01X21583Y54878D02*
X21893Y54648D01*
X22048Y54380D01*
X22100Y54073D01*
X21997Y53690D01*
X21738Y53422D01*
X21428Y53345D01*
X21118Y53383D01*
X20860Y53537D01*
X20343Y54303D01*
X19982Y54648D01*
X19465Y54878D01*
X19000Y54955D01*
Y53345D01*
G01X22100Y51050D02*
X21997Y51357D01*
X21738Y51587D01*
X21428Y51740D01*
X21015Y51855D01*
X20550Y51893D01*
X20085Y51855D01*
X19672Y51740D01*
X19362Y51587D01*
X19103Y51357D01*
X19000Y51050D01*
X19103Y50743D01*
X19362Y50513D01*
X19672Y50360D01*
X20085Y50245D01*
X20550Y50207D01*
X21015Y50245D01*
X21428Y50360D01*
X21738Y50513D01*
X21997Y50743D01*
X22100Y51050D01*
G01X21583Y48678D02*
X21893Y48448D01*
X22048Y48180D01*
X22100Y47873D01*
X21997Y47490D01*
X21738Y47222D01*
X21428Y47145D01*
X21118Y47183D01*
X20860Y47337D01*
X20343Y48103D01*
X19982Y48448D01*
X19465Y48678D01*
X19000Y48755D01*
Y47145D01*
G01Y44390D02*
X22100D01*
X19878Y45808D01*
Y43892D01*
G01X20033Y42248D02*
Y41252D01*
G01X21583Y39378D02*
X21893Y39148D01*
X22048Y38880D01*
X22100Y38573D01*
X21997Y38190D01*
X21738Y37922D01*
X21428Y37845D01*
X21118Y37883D01*
X20860Y38037D01*
X20343Y38803D01*
X19982Y39148D01*
X19465Y39378D01*
X19000Y39455D01*
Y37845D01*
G01X22100Y35550D02*
X21997Y35857D01*
X21738Y36087D01*
X21428Y36240D01*
X21015Y36355D01*
X20550Y36393D01*
X20085Y36355D01*
X19672Y36240D01*
X19362Y36087D01*
X19103Y35857D01*
X19000Y35550D01*
X19103Y35243D01*
X19362Y35013D01*
X19672Y34860D01*
X20085Y34745D01*
X20550Y34707D01*
X21015Y34745D01*
X21428Y34860D01*
X21738Y35013D01*
X21997Y35243D01*
X22100Y35550D01*
G01X21583Y33178D02*
X21893Y32948D01*
X22048Y32680D01*
X22100Y32373D01*
X21997Y31990D01*
X21738Y31722D01*
X21428Y31645D01*
X21118Y31683D01*
X20860Y31837D01*
X20343Y32603D01*
X19982Y32948D01*
X19465Y33178D01*
X19000Y33255D01*
Y31645D01*
G01X19465Y30193D02*
X19207Y29963D01*
X19052Y29695D01*
X19000Y29350D01*
X19103Y29005D01*
X19310Y28737D01*
X19672Y28545D01*
X20085Y28507D01*
X20498Y28583D01*
X20757Y28775D01*
X20963Y29043D01*
X21015Y29312D01*
X20963Y29580D01*
X20757Y29925D01*
X22100Y29810D01*
Y28775D01*
G01X13000Y75390D02*
X16100D01*
X13878Y76808D01*
Y74892D01*
G01X13620Y73593D02*
X13258Y73363D01*
X13052Y73057D01*
X13000Y72712D01*
X13052Y72405D01*
X13310Y72098D01*
X13620Y71907D01*
X13930Y71868D01*
X14292Y71945D01*
X14550Y72213D01*
X14653Y72482D01*
Y72827D01*
G01Y72482D02*
X14808Y72252D01*
X15067Y72060D01*
X15377Y71983D01*
X15687Y72060D01*
X15945Y72252D01*
X16100Y72597D01*
X16048Y72942D01*
X15842Y73287D01*
G01X13000Y69190D02*
X16100D01*
X13878Y70608D01*
Y68692D01*
G01X13000Y67393D02*
X16100D01*
Y66627D01*
X15945Y66320D01*
X15738Y66090D01*
X15428Y65898D01*
X15067Y65745D01*
X14550Y65707D01*
X14033Y65745D01*
X13672Y65898D01*
X13362Y66090D01*
X13155Y66320D01*
X13000Y66627D01*
Y67393D01*
G01X16683Y82000D02*
Y85100D01*
X17642D01*
X17948Y84945D01*
X18140Y84738D01*
X18217Y84325D01*
X18140Y83912D01*
X17910Y83653D01*
X17642Y83498D01*
X16683D01*
G01X17642D02*
X18217Y82000D01*
G01X21010D02*
Y85100D01*
X19592Y82878D01*
X21508D01*
G01X16683Y95000D02*
Y98100D01*
X17642D01*
X17948Y97945D01*
X18140Y97738D01*
X18217Y97325D01*
X18140Y96912D01*
X17910Y96653D01*
X17642Y96498D01*
X16683D01*
G01X17642D02*
X18217Y95000D01*
G01X19707Y95620D02*
X19937Y95258D01*
X20243Y95052D01*
X20588Y95000D01*
X20895Y95052D01*
X21202Y95310D01*
X21393Y95620D01*
X21432Y95930D01*
X21355Y96292D01*
X21087Y96550D01*
X20818Y96653D01*
X20473D01*
G01X20818D02*
X21048Y96808D01*
X21240Y97067D01*
X21317Y97377D01*
X21240Y97687D01*
X21048Y97945D01*
X20703Y98100D01*
X20358Y98048D01*
X20013Y97842D01*
G01X16683Y108000D02*
Y111100D01*
X17642D01*
X17948Y110945D01*
X18140Y110738D01*
X18217Y110325D01*
X18140Y109912D01*
X17910Y109653D01*
X17642Y109498D01*
X16683D01*
G01X17642D02*
X18217Y108000D01*
G01X19822Y110583D02*
X20052Y110893D01*
X20320Y111048D01*
X20627Y111100D01*
X21010Y110997D01*
X21278Y110738D01*
X21355Y110428D01*
X21317Y110118D01*
X21163Y109860D01*
X20397Y109343D01*
X20052Y108982D01*
X19822Y108465D01*
X19745Y108000D01*
X21355D01*
G01X16683Y121000D02*
Y124100D01*
X17642D01*
X17948Y123945D01*
X18140Y123738D01*
X18217Y123325D01*
X18140Y122912D01*
X17910Y122653D01*
X17642Y122498D01*
X16683D01*
G01X17642D02*
X18217Y121000D01*
G01X20550D02*
Y124100D01*
X20090Y123480D01*
G01Y121000D02*
X21010D01*
G01X49000Y18867D02*
X52100D01*
Y17908D01*
X51945Y17602D01*
X51738Y17410D01*
X51325Y17333D01*
X50912Y17410D01*
X50653Y17640D01*
X50498Y17908D01*
Y18867D01*
G01Y17908D02*
X49000Y17333D01*
G01X51583Y15728D02*
X51893Y15498D01*
X52048Y15230D01*
X52100Y14923D01*
X51997Y14540D01*
X51738Y14272D01*
X51428Y14195D01*
X51118Y14233D01*
X50860Y14387D01*
X50343Y15153D01*
X49982Y15498D01*
X49465Y15728D01*
X49000Y15805D01*
Y14195D01*
G01X49620Y12743D02*
X49258Y12513D01*
X49052Y12207D01*
X49000Y11862D01*
X49052Y11555D01*
X49310Y11248D01*
X49620Y11057D01*
X49930Y11018D01*
X50292Y11095D01*
X50550Y11363D01*
X50653Y11632D01*
Y11977D01*
G01Y11632D02*
X50808Y11402D01*
X51067Y11210D01*
X51377Y11133D01*
X51687Y11210D01*
X51945Y11402D01*
X52100Y11747D01*
X52048Y12092D01*
X51842Y12437D01*
G01X34000Y18867D02*
X37100D01*
Y17908D01*
X36945Y17602D01*
X36738Y17410D01*
X36325Y17333D01*
X35912Y17410D01*
X35653Y17640D01*
X35498Y17908D01*
Y18867D01*
G01Y17908D02*
X34000Y17333D01*
G01X36583Y15728D02*
X36893Y15498D01*
X37048Y15230D01*
X37100Y14923D01*
X36997Y14540D01*
X36738Y14272D01*
X36428Y14195D01*
X36118Y14233D01*
X35860Y14387D01*
X35343Y15153D01*
X34982Y15498D01*
X34465Y15728D01*
X34000Y15805D01*
Y14195D01*
G01X36583Y12628D02*
X36893Y12398D01*
X37048Y12130D01*
X37100Y11823D01*
X36997Y11440D01*
X36738Y11172D01*
X36428Y11095D01*
X36118Y11133D01*
X35860Y11287D01*
X35343Y12053D01*
X34982Y12398D01*
X34465Y12628D01*
X34000Y12705D01*
Y11095D01*
G01X46133Y33000D02*
Y36100D01*
X47092D01*
X47398Y35945D01*
X47590Y35738D01*
X47667Y35325D01*
X47590Y34912D01*
X47360Y34653D01*
X47092Y34498D01*
X46133D01*
G01X47092D02*
X47667Y33000D01*
G01X50000D02*
Y36100D01*
X49540Y35480D01*
G01Y33000D02*
X50460D01*
G01X52448Y33362D02*
X52717Y33103D01*
X53023Y33000D01*
X53330Y33103D01*
X53598Y33413D01*
X53790Y33878D01*
X53867Y34343D01*
Y34912D01*
X53790Y35377D01*
X53598Y35790D01*
X53368Y35997D01*
X53100Y36100D01*
X52793Y35997D01*
X52563Y35790D01*
X52410Y35480D01*
X52333Y35067D01*
X52410Y34705D01*
X52602Y34343D01*
X52832Y34137D01*
X53100Y34085D01*
X53407Y34188D01*
X53637Y34447D01*
X53867Y34912D01*
G01X53000Y52867D02*
X56100D01*
Y51908D01*
X55945Y51602D01*
X55738Y51410D01*
X55325Y51333D01*
X54912Y51410D01*
X54653Y51640D01*
X54498Y51908D01*
Y52867D01*
G01Y51908D02*
X53000Y51333D01*
G01Y49000D02*
X56100D01*
X55480Y49460D01*
G01X53000D02*
Y48540D01*
G01Y45977D02*
X53672Y45900D01*
X54240Y45785D01*
X54757Y45632D01*
X55325Y45440D01*
X56100Y45133D01*
Y46667D01*
G01X30000Y55317D02*
X33100D01*
Y54397D01*
X32945Y54090D01*
X32583Y53860D01*
X32170Y53783D01*
X31757Y53860D01*
X31447Y54052D01*
X31292Y54397D01*
Y55317D01*
G01X32583Y52178D02*
X32893Y51948D01*
X33048Y51680D01*
X33100Y51373D01*
X32997Y50990D01*
X32738Y50722D01*
X32428Y50645D01*
X32118Y50683D01*
X31860Y50837D01*
X31343Y51603D01*
X30982Y51948D01*
X30465Y52178D01*
X30000Y52255D01*
Y50645D01*
G01X34133Y78000D02*
Y81100D01*
X35092D01*
X35398Y80945D01*
X35590Y80738D01*
X35667Y80325D01*
X35590Y79912D01*
X35360Y79653D01*
X35092Y79498D01*
X34133D01*
G01X35092D02*
X35667Y78000D01*
G01X38000D02*
Y81100D01*
X37540Y80480D01*
G01Y78000D02*
X38460D01*
G01X40372Y80583D02*
X40602Y80893D01*
X40870Y81048D01*
X41177Y81100D01*
X41560Y80997D01*
X41828Y80738D01*
X41905Y80428D01*
X41867Y80118D01*
X41713Y79860D01*
X40947Y79343D01*
X40602Y78982D01*
X40372Y78465D01*
X40295Y78000D01*
X41905D01*
G01X34133D02*
Y81100D01*
X35092D01*
X35398Y80945D01*
X35590Y80738D01*
X35667Y80325D01*
X35590Y79912D01*
X35360Y79653D01*
X35092Y79498D01*
X34133D01*
G01X35092D02*
X35667Y78000D01*
G01X38000D02*
Y81100D01*
X37540Y80480D01*
G01Y78000D02*
X38460D01*
G01X40372Y80583D02*
X40602Y80893D01*
X40870Y81048D01*
X41177Y81100D01*
X41560Y80997D01*
X41828Y80738D01*
X41905Y80428D01*
X41867Y80118D01*
X41713Y79860D01*
X40947Y79343D01*
X40602Y78982D01*
X40372Y78465D01*
X40295Y78000D01*
X41905D01*
G01X49000Y74550D02*
X49052Y74857D01*
X49258Y75125D01*
X49568Y75355D01*
X49930Y75508D01*
X50343Y75585D01*
X50757D01*
X51170Y75508D01*
X51532Y75355D01*
X51842Y75125D01*
X52048Y74857D01*
X52100Y74550D01*
X52048Y74243D01*
X51842Y73975D01*
X51532Y73745D01*
X51170Y73592D01*
X50757Y73515D01*
X50343D01*
X49930Y73592D01*
X49568Y73745D01*
X49258Y73975D01*
X49052Y74243D01*
X49000Y74550D01*
G01X49827Y74243D02*
X49000Y73783D01*
G01Y70990D02*
X52100D01*
X49878Y72408D01*
Y70492D01*
G01X43100Y112417D02*
X40000D01*
Y110883D01*
G01Y107783D02*
Y109317D01*
X43100D01*
Y107783D01*
G01X41602Y108397D02*
Y109317D01*
G01X40000Y106293D02*
X43100D01*
Y105527D01*
X42945Y105220D01*
X42738Y104990D01*
X42428Y104798D01*
X42067Y104645D01*
X41550Y104607D01*
X41033Y104645D01*
X40672Y104798D01*
X40362Y104990D01*
X40155Y105220D01*
X40000Y105527D01*
Y106293D01*
G01Y102350D02*
X43100D01*
X42480Y102810D01*
G01X40000D02*
Y101890D01*
G01X50683Y109000D02*
Y112100D01*
X51642D01*
X51948Y111945D01*
X52140Y111738D01*
X52217Y111325D01*
X52140Y110912D01*
X51910Y110653D01*
X51642Y110498D01*
X50683D01*
G01X51642D02*
X52217Y109000D01*
G01X53822Y110292D02*
X54090Y110653D01*
X54320Y110860D01*
X54627Y110963D01*
X54895Y110860D01*
X55087Y110653D01*
X55240Y110343D01*
X55278Y109982D01*
X55240Y109672D01*
X55087Y109362D01*
X54857Y109103D01*
X54588Y109000D01*
X54282Y109103D01*
X54013Y109413D01*
X53860Y109878D01*
X53822Y110395D01*
X53898Y111067D01*
X54013Y111428D01*
X54205Y111790D01*
X54473Y112048D01*
X54742Y112100D01*
X55010Y111997D01*
X55202Y111738D01*
G01X34133Y91000D02*
Y94100D01*
X35092D01*
X35398Y93945D01*
X35590Y93738D01*
X35667Y93325D01*
X35590Y92912D01*
X35360Y92653D01*
X35092Y92498D01*
X34133D01*
G01X35092D02*
X35667Y91000D01*
G01X38000D02*
Y94100D01*
X37540Y93480D01*
G01Y91000D02*
X38460D01*
G01X41100Y94100D02*
X40793Y93997D01*
X40563Y93738D01*
X40410Y93428D01*
X40295Y93015D01*
X40257Y92550D01*
X40295Y92085D01*
X40410Y91672D01*
X40563Y91362D01*
X40793Y91103D01*
X41100Y91000D01*
X41407Y91103D01*
X41637Y91362D01*
X41790Y91672D01*
X41905Y92085D01*
X41943Y92550D01*
X41905Y93015D01*
X41790Y93428D01*
X41637Y93738D01*
X41407Y93997D01*
X41100Y94100D01*
G01X34133Y91000D02*
Y94100D01*
X35092D01*
X35398Y93945D01*
X35590Y93738D01*
X35667Y93325D01*
X35590Y92912D01*
X35360Y92653D01*
X35092Y92498D01*
X34133D01*
G01X35092D02*
X35667Y91000D01*
G01X38000D02*
Y94100D01*
X37540Y93480D01*
G01Y91000D02*
X38460D01*
G01X41100Y94100D02*
X40793Y93997D01*
X40563Y93738D01*
X40410Y93428D01*
X40295Y93015D01*
X40257Y92550D01*
X40295Y92085D01*
X40410Y91672D01*
X40563Y91362D01*
X40793Y91103D01*
X41100Y91000D01*
X41407Y91103D01*
X41637Y91362D01*
X41790Y91672D01*
X41905Y92085D01*
X41943Y92550D01*
X41905Y93015D01*
X41790Y93428D01*
X41637Y93738D01*
X41407Y93997D01*
X41100Y94100D01*
G01X44683Y142000D02*
Y145100D01*
X45642D01*
X45948Y144945D01*
X46140Y144738D01*
X46217Y144325D01*
X46140Y143912D01*
X45910Y143653D01*
X45642Y143498D01*
X44683D01*
G01X45642D02*
X46217Y142000D01*
G01X47707Y142465D02*
X47937Y142207D01*
X48205Y142052D01*
X48550Y142000D01*
X48895Y142103D01*
X49163Y142310D01*
X49355Y142672D01*
X49393Y143085D01*
X49317Y143498D01*
X49125Y143757D01*
X48857Y143963D01*
X48588Y144015D01*
X48320Y143963D01*
X47975Y143757D01*
X48090Y145100D01*
X49125D01*
G01X27000Y128693D02*
X30100D01*
Y127927D01*
X29945Y127620D01*
X29738Y127390D01*
X29428Y127198D01*
X29067Y127045D01*
X28550Y127007D01*
X28033Y127045D01*
X27672Y127198D01*
X27362Y127390D01*
X27155Y127620D01*
X27000Y127927D01*
Y128693D01*
G01Y124750D02*
X30100D01*
X29480Y125210D01*
G01X27000D02*
Y124290D01*
G01X28683Y148620D02*
X28875Y148310D01*
X29105Y148103D01*
X29373Y148000D01*
X29680Y148103D01*
X29910Y148310D01*
X30140Y148620D01*
X30217Y149033D01*
Y151100D01*
G01X32550Y148000D02*
Y151100D01*
X32090Y150480D01*
G01Y148000D02*
X33010D01*
G01X79000Y18867D02*
X82100D01*
Y17908D01*
X81945Y17602D01*
X81738Y17410D01*
X81325Y17333D01*
X80912Y17410D01*
X80653Y17640D01*
X80498Y17908D01*
Y18867D01*
G01Y17908D02*
X79000Y17333D01*
G01X81583Y15728D02*
X81893Y15498D01*
X82048Y15230D01*
X82100Y14923D01*
X81997Y14540D01*
X81738Y14272D01*
X81428Y14195D01*
X81118Y14233D01*
X80860Y14387D01*
X80343Y15153D01*
X79982Y15498D01*
X79465Y15728D01*
X79000Y15805D01*
Y14195D01*
G01X80292Y12628D02*
X80653Y12360D01*
X80860Y12130D01*
X80963Y11823D01*
X80860Y11555D01*
X80653Y11363D01*
X80343Y11210D01*
X79982Y11172D01*
X79672Y11210D01*
X79362Y11363D01*
X79103Y11593D01*
X79000Y11862D01*
X79103Y12168D01*
X79413Y12437D01*
X79878Y12590D01*
X80395Y12628D01*
X81067Y12552D01*
X81428Y12437D01*
X81790Y12245D01*
X82048Y11977D01*
X82100Y11708D01*
X81997Y11440D01*
X81738Y11248D01*
G01X64000Y18867D02*
X67100D01*
Y17908D01*
X66945Y17602D01*
X66738Y17410D01*
X66325Y17333D01*
X65912Y17410D01*
X65653Y17640D01*
X65498Y17908D01*
Y18867D01*
G01Y17908D02*
X64000Y17333D01*
G01X66583Y15728D02*
X66893Y15498D01*
X67048Y15230D01*
X67100Y14923D01*
X66997Y14540D01*
X66738Y14272D01*
X66428Y14195D01*
X66118Y14233D01*
X65860Y14387D01*
X65343Y15153D01*
X64982Y15498D01*
X64465Y15728D01*
X64000Y15805D01*
Y14195D01*
G01Y11440D02*
X67100D01*
X64878Y12858D01*
Y10942D01*
G01X65133Y33000D02*
Y36100D01*
X66092D01*
X66398Y35945D01*
X66590Y35738D01*
X66667Y35325D01*
X66590Y34912D01*
X66360Y34653D01*
X66092Y34498D01*
X65133D01*
G01X66092D02*
X66667Y33000D01*
G01X68272Y35583D02*
X68502Y35893D01*
X68770Y36048D01*
X69077Y36100D01*
X69460Y35997D01*
X69728Y35738D01*
X69805Y35428D01*
X69767Y35118D01*
X69613Y34860D01*
X68847Y34343D01*
X68502Y33982D01*
X68272Y33465D01*
X68195Y33000D01*
X69805D01*
G01X72100D02*
Y36100D01*
X71640Y35480D01*
G01Y33000D02*
X72560D01*
G01X68000Y52867D02*
X71100D01*
Y51908D01*
X70945Y51602D01*
X70738Y51410D01*
X70325Y51333D01*
X69912Y51410D01*
X69653Y51640D01*
X69498Y51908D01*
Y52867D01*
G01Y51908D02*
X68000Y51333D01*
G01Y49000D02*
X71100D01*
X70480Y49460D01*
G01X68000D02*
Y48540D01*
G01X69292Y46628D02*
X69653Y46360D01*
X69860Y46130D01*
X69963Y45823D01*
X69860Y45555D01*
X69653Y45363D01*
X69343Y45210D01*
X68982Y45172D01*
X68672Y45210D01*
X68362Y45363D01*
X68103Y45593D01*
X68000Y45862D01*
X68103Y46168D01*
X68413Y46437D01*
X68878Y46590D01*
X69395Y46628D01*
X70067Y46552D01*
X70428Y46437D01*
X70790Y46245D01*
X71048Y45977D01*
X71100Y45708D01*
X70997Y45440D01*
X70738Y45248D01*
G01X73450Y77000D02*
X73143Y77052D01*
X72875Y77258D01*
X72645Y77568D01*
X72492Y77930D01*
X72415Y78343D01*
Y78757D01*
X72492Y79170D01*
X72645Y79532D01*
X72875Y79842D01*
X73143Y80048D01*
X73450Y80100D01*
X73757Y80048D01*
X74025Y79842D01*
X74255Y79532D01*
X74408Y79170D01*
X74485Y78757D01*
Y78343D01*
X74408Y77930D01*
X74255Y77568D01*
X74025Y77258D01*
X73757Y77052D01*
X73450Y77000D01*
G01X73757Y77827D02*
X74217Y77000D01*
G01X75707Y77465D02*
X75937Y77207D01*
X76205Y77052D01*
X76550Y77000D01*
X76895Y77103D01*
X77163Y77310D01*
X77355Y77672D01*
X77393Y78085D01*
X77317Y78498D01*
X77125Y78757D01*
X76857Y78963D01*
X76588Y79015D01*
X76320Y78963D01*
X75975Y78757D01*
X76090Y80100D01*
X77125D01*
G01X76683Y93000D02*
Y96100D01*
X77642D01*
X77948Y95945D01*
X78140Y95738D01*
X78217Y95325D01*
X78140Y94912D01*
X77910Y94653D01*
X77642Y94498D01*
X76683D01*
G01X77642D02*
X78217Y93000D01*
G01X79898Y93362D02*
X80167Y93103D01*
X80473Y93000D01*
X80780Y93103D01*
X81048Y93413D01*
X81240Y93878D01*
X81317Y94343D01*
Y94912D01*
X81240Y95377D01*
X81048Y95790D01*
X80818Y95997D01*
X80550Y96100D01*
X80243Y95997D01*
X80013Y95790D01*
X79860Y95480D01*
X79783Y95067D01*
X79860Y94705D01*
X80052Y94343D01*
X80282Y94137D01*
X80550Y94085D01*
X80857Y94188D01*
X81087Y94447D01*
X81317Y94912D01*
G01X72683Y110000D02*
Y113100D01*
X73642D01*
X73948Y112945D01*
X74140Y112738D01*
X74217Y112325D01*
X74140Y111912D01*
X73910Y111653D01*
X73642Y111498D01*
X72683D01*
G01X73642D02*
X74217Y110000D01*
G01X76550D02*
X76818Y110052D01*
X77125Y110207D01*
X77317Y110465D01*
X77393Y110827D01*
X77317Y111188D01*
X77087Y111498D01*
X76742Y111653D01*
X76358D01*
X76128Y111757D01*
X75937Y112015D01*
X75860Y112377D01*
X75975Y112738D01*
X76243Y112997D01*
X76550Y113100D01*
X76857Y112997D01*
X77125Y112738D01*
X77240Y112377D01*
X77163Y112015D01*
X76972Y111757D01*
X76742Y111653D01*
X76358D01*
X76013Y111498D01*
X75783Y111188D01*
X75707Y110827D01*
X75783Y110465D01*
X75975Y110207D01*
X76282Y110052D01*
X76550Y110000D01*
G01X59450Y96000D02*
X59143Y96052D01*
X58875Y96258D01*
X58645Y96568D01*
X58492Y96930D01*
X58415Y97343D01*
Y97757D01*
X58492Y98170D01*
X58645Y98532D01*
X58875Y98842D01*
X59143Y99048D01*
X59450Y99100D01*
X59757Y99048D01*
X60025Y98842D01*
X60255Y98532D01*
X60408Y98170D01*
X60485Y97757D01*
Y97343D01*
X60408Y96930D01*
X60255Y96568D01*
X60025Y96258D01*
X59757Y96052D01*
X59450Y96000D01*
G01X59757Y96827D02*
X60217Y96000D01*
G01X61822Y98583D02*
X62052Y98893D01*
X62320Y99048D01*
X62627Y99100D01*
X63010Y98997D01*
X63278Y98738D01*
X63355Y98428D01*
X63317Y98118D01*
X63163Y97860D01*
X62397Y97343D01*
X62052Y96982D01*
X61822Y96465D01*
X61745Y96000D01*
X63355D01*
G01X59450D02*
X59143Y96052D01*
X58875Y96258D01*
X58645Y96568D01*
X58492Y96930D01*
X58415Y97343D01*
Y97757D01*
X58492Y98170D01*
X58645Y98532D01*
X58875Y98842D01*
X59143Y99048D01*
X59450Y99100D01*
X59757Y99048D01*
X60025Y98842D01*
X60255Y98532D01*
X60408Y98170D01*
X60485Y97757D01*
Y97343D01*
X60408Y96930D01*
X60255Y96568D01*
X60025Y96258D01*
X59757Y96052D01*
X59450Y96000D01*
G01X59757Y96827D02*
X60217Y96000D01*
G01X61822Y98583D02*
X62052Y98893D01*
X62320Y99048D01*
X62627Y99100D01*
X63010Y98997D01*
X63278Y98738D01*
X63355Y98428D01*
X63317Y98118D01*
X63163Y97860D01*
X62397Y97343D01*
X62052Y96982D01*
X61822Y96465D01*
X61745Y96000D01*
X63355D01*
G01X77000Y123317D02*
X80100D01*
Y122358D01*
X79945Y122052D01*
X79738Y121860D01*
X79325Y121783D01*
X78912Y121860D01*
X78653Y122090D01*
X78498Y122358D01*
Y123317D01*
G01Y122358D02*
X77000Y121783D01*
G01Y119527D02*
X77672Y119450D01*
X78240Y119335D01*
X78757Y119182D01*
X79325Y118990D01*
X80100Y118683D01*
Y120217D01*
G01X55000Y126693D02*
X58100D01*
Y125927D01*
X57945Y125620D01*
X57738Y125390D01*
X57428Y125198D01*
X57067Y125045D01*
X56550Y125007D01*
X56033Y125045D01*
X55672Y125198D01*
X55362Y125390D01*
X55155Y125620D01*
X55000Y125927D01*
Y126693D01*
G01X57583Y123478D02*
X57893Y123248D01*
X58048Y122980D01*
X58100Y122673D01*
X57997Y122290D01*
X57738Y122022D01*
X57428Y121945D01*
X57118Y121983D01*
X56860Y122137D01*
X56343Y122903D01*
X55982Y123248D01*
X55465Y123478D01*
X55000Y123555D01*
Y121945D01*
G01X67450Y151000D02*
X67143Y151052D01*
X66875Y151258D01*
X66645Y151568D01*
X66492Y151930D01*
X66415Y152343D01*
Y152757D01*
X66492Y153170D01*
X66645Y153532D01*
X66875Y153842D01*
X67143Y154048D01*
X67450Y154100D01*
X67757Y154048D01*
X68025Y153842D01*
X68255Y153532D01*
X68408Y153170D01*
X68485Y152757D01*
Y152343D01*
X68408Y151930D01*
X68255Y151568D01*
X68025Y151258D01*
X67757Y151052D01*
X67450Y151000D01*
G01X67757Y151827D02*
X68217Y151000D01*
G01X70550D02*
Y154100D01*
X70090Y153480D01*
G01Y151000D02*
X71010D01*
G01X95000Y18867D02*
X98100D01*
Y17908D01*
X97945Y17602D01*
X97738Y17410D01*
X97325Y17333D01*
X96912Y17410D01*
X96653Y17640D01*
X96498Y17908D01*
Y18867D01*
G01Y17908D02*
X95000Y17333D01*
G01X97583Y15728D02*
X97893Y15498D01*
X98048Y15230D01*
X98100Y14923D01*
X97997Y14540D01*
X97738Y14272D01*
X97428Y14195D01*
X97118Y14233D01*
X96860Y14387D01*
X96343Y15153D01*
X95982Y15498D01*
X95465Y15728D01*
X95000Y15805D01*
Y14195D01*
G01Y11977D02*
X95672Y11900D01*
X96240Y11785D01*
X96757Y11632D01*
X97325Y11440D01*
X98100Y11133D01*
Y12667D01*
G01X86000Y48317D02*
X89100D01*
Y47397D01*
X88945Y47090D01*
X88583Y46860D01*
X88170Y46783D01*
X87757Y46860D01*
X87447Y47052D01*
X87292Y47397D01*
Y48317D01*
G01X86000Y44450D02*
X89100D01*
X88480Y44910D01*
G01X86000D02*
Y43990D01*
G01X96133Y64000D02*
Y67100D01*
X97092D01*
X97398Y66945D01*
X97590Y66738D01*
X97667Y66325D01*
X97590Y65912D01*
X97360Y65653D01*
X97092Y65498D01*
X96133D01*
G01X97092D02*
X97667Y64000D01*
G01X99272Y66583D02*
X99502Y66893D01*
X99770Y67048D01*
X100077Y67100D01*
X100460Y66997D01*
X100728Y66738D01*
X100805Y66428D01*
X100767Y66118D01*
X100613Y65860D01*
X99847Y65343D01*
X99502Y64982D01*
X99272Y64465D01*
X99195Y64000D01*
X100805D01*
G01X103100D02*
X103368Y64052D01*
X103675Y64207D01*
X103867Y64465D01*
X103943Y64827D01*
X103867Y65188D01*
X103637Y65498D01*
X103292Y65653D01*
X102908D01*
X102678Y65757D01*
X102487Y66015D01*
X102410Y66377D01*
X102525Y66738D01*
X102793Y66997D01*
X103100Y67100D01*
X103407Y66997D01*
X103675Y66738D01*
X103790Y66377D01*
X103713Y66015D01*
X103522Y65757D01*
X103292Y65653D01*
X102908D01*
X102563Y65498D01*
X102333Y65188D01*
X102257Y64827D01*
X102333Y64465D01*
X102525Y64207D01*
X102832Y64052D01*
X103100Y64000D01*
G01X96133D02*
Y67100D01*
X97092D01*
X97398Y66945D01*
X97590Y66738D01*
X97667Y66325D01*
X97590Y65912D01*
X97360Y65653D01*
X97092Y65498D01*
X96133D01*
G01X97092D02*
X97667Y64000D01*
G01X99272Y66583D02*
X99502Y66893D01*
X99770Y67048D01*
X100077Y67100D01*
X100460Y66997D01*
X100728Y66738D01*
X100805Y66428D01*
X100767Y66118D01*
X100613Y65860D01*
X99847Y65343D01*
X99502Y64982D01*
X99272Y64465D01*
X99195Y64000D01*
X100805D01*
G01X103100D02*
X103368Y64052D01*
X103675Y64207D01*
X103867Y64465D01*
X103943Y64827D01*
X103867Y65188D01*
X103637Y65498D01*
X103292Y65653D01*
X102908D01*
X102678Y65757D01*
X102487Y66015D01*
X102410Y66377D01*
X102525Y66738D01*
X102793Y66997D01*
X103100Y67100D01*
X103407Y66997D01*
X103675Y66738D01*
X103790Y66377D01*
X103713Y66015D01*
X103522Y65757D01*
X103292Y65653D01*
X102908D01*
X102563Y65498D01*
X102333Y65188D01*
X102257Y64827D01*
X102333Y64465D01*
X102525Y64207D01*
X102832Y64052D01*
X103100Y64000D01*
G01X111133Y83000D02*
Y86100D01*
X112092D01*
X112398Y85945D01*
X112590Y85738D01*
X112667Y85325D01*
X112590Y84912D01*
X112360Y84653D01*
X112092Y84498D01*
X111133D01*
G01X112092D02*
X112667Y83000D01*
G01X115000D02*
Y86100D01*
X114540Y85480D01*
G01Y83000D02*
X115460D01*
G01X118100D02*
X118368Y83052D01*
X118675Y83207D01*
X118867Y83465D01*
X118943Y83827D01*
X118867Y84188D01*
X118637Y84498D01*
X118292Y84653D01*
X117908D01*
X117678Y84757D01*
X117487Y85015D01*
X117410Y85377D01*
X117525Y85738D01*
X117793Y85997D01*
X118100Y86100D01*
X118407Y85997D01*
X118675Y85738D01*
X118790Y85377D01*
X118713Y85015D01*
X118522Y84757D01*
X118292Y84653D01*
X117908D01*
X117563Y84498D01*
X117333Y84188D01*
X117257Y83827D01*
X117333Y83465D01*
X117525Y83207D01*
X117832Y83052D01*
X118100Y83000D01*
G01X111133D02*
Y86100D01*
X112092D01*
X112398Y85945D01*
X112590Y85738D01*
X112667Y85325D01*
X112590Y84912D01*
X112360Y84653D01*
X112092Y84498D01*
X111133D01*
G01X112092D02*
X112667Y83000D01*
G01X115000D02*
Y86100D01*
X114540Y85480D01*
G01Y83000D02*
X115460D01*
G01X118100D02*
X118368Y83052D01*
X118675Y83207D01*
X118867Y83465D01*
X118943Y83827D01*
X118867Y84188D01*
X118637Y84498D01*
X118292Y84653D01*
X117908D01*
X117678Y84757D01*
X117487Y85015D01*
X117410Y85377D01*
X117525Y85738D01*
X117793Y85997D01*
X118100Y86100D01*
X118407Y85997D01*
X118675Y85738D01*
X118790Y85377D01*
X118713Y85015D01*
X118522Y84757D01*
X118292Y84653D01*
X117908D01*
X117563Y84498D01*
X117333Y84188D01*
X117257Y83827D01*
X117333Y83465D01*
X117525Y83207D01*
X117832Y83052D01*
X118100Y83000D01*
G01X87000Y110867D02*
X90100D01*
Y109908D01*
X89945Y109602D01*
X89738Y109410D01*
X89325Y109333D01*
X88912Y109410D01*
X88653Y109640D01*
X88498Y109908D01*
Y110867D01*
G01Y109908D02*
X87000Y109333D01*
G01X89583Y107728D02*
X89893Y107498D01*
X90048Y107230D01*
X90100Y106923D01*
X89997Y106540D01*
X89738Y106272D01*
X89428Y106195D01*
X89118Y106233D01*
X88860Y106387D01*
X88343Y107153D01*
X87982Y107498D01*
X87465Y107728D01*
X87000Y107805D01*
Y106195D01*
G01X87465Y104743D02*
X87207Y104513D01*
X87052Y104245D01*
X87000Y103900D01*
X87103Y103555D01*
X87310Y103287D01*
X87672Y103095D01*
X88085Y103057D01*
X88498Y103133D01*
X88757Y103325D01*
X88963Y103593D01*
X89015Y103862D01*
X88963Y104130D01*
X88757Y104475D01*
X90100Y104360D01*
Y103325D01*
G01X87000Y94867D02*
X90100D01*
Y93908D01*
X89945Y93602D01*
X89738Y93410D01*
X89325Y93333D01*
X88912Y93410D01*
X88653Y93640D01*
X88498Y93908D01*
Y94867D01*
G01Y93908D02*
X87000Y93333D01*
G01X89583Y91728D02*
X89893Y91498D01*
X90048Y91230D01*
X90100Y90923D01*
X89997Y90540D01*
X89738Y90272D01*
X89428Y90195D01*
X89118Y90233D01*
X88860Y90387D01*
X88343Y91153D01*
X87982Y91498D01*
X87465Y91728D01*
X87000Y91805D01*
Y90195D01*
G01X90100Y87900D02*
X89997Y88207D01*
X89738Y88437D01*
X89428Y88590D01*
X89015Y88705D01*
X88550Y88743D01*
X88085Y88705D01*
X87672Y88590D01*
X87362Y88437D01*
X87103Y88207D01*
X87000Y87900D01*
X87103Y87593D01*
X87362Y87363D01*
X87672Y87210D01*
X88085Y87095D01*
X88550Y87057D01*
X89015Y87095D01*
X89428Y87210D01*
X89738Y87363D01*
X89997Y87593D01*
X90100Y87900D01*
G01X106450Y113000D02*
X106143Y113052D01*
X105875Y113258D01*
X105645Y113568D01*
X105492Y113930D01*
X105415Y114343D01*
Y114757D01*
X105492Y115170D01*
X105645Y115532D01*
X105875Y115842D01*
X106143Y116048D01*
X106450Y116100D01*
X106757Y116048D01*
X107025Y115842D01*
X107255Y115532D01*
X107408Y115170D01*
X107485Y114757D01*
Y114343D01*
X107408Y113930D01*
X107255Y113568D01*
X107025Y113258D01*
X106757Y113052D01*
X106450Y113000D01*
G01X106757Y113827D02*
X107217Y113000D01*
G01X108898Y113362D02*
X109167Y113103D01*
X109473Y113000D01*
X109780Y113103D01*
X110048Y113413D01*
X110240Y113878D01*
X110317Y114343D01*
Y114912D01*
X110240Y115377D01*
X110048Y115790D01*
X109818Y115997D01*
X109550Y116100D01*
X109243Y115997D01*
X109013Y115790D01*
X108860Y115480D01*
X108783Y115067D01*
X108860Y114705D01*
X109052Y114343D01*
X109282Y114137D01*
X109550Y114085D01*
X109857Y114188D01*
X110087Y114447D01*
X110317Y114912D01*
G01X99000Y129867D02*
X102100D01*
Y128908D01*
X101945Y128602D01*
X101738Y128410D01*
X101325Y128333D01*
X100912Y128410D01*
X100653Y128640D01*
X100498Y128908D01*
Y129867D01*
G01Y128908D02*
X99000Y128333D01*
G01Y126000D02*
X102100D01*
X101480Y126460D01*
G01X99000D02*
Y125540D01*
G01Y122900D02*
X102100D01*
X101480Y123360D01*
G01X99000D02*
Y122440D01*
G01X102000Y149867D02*
X105100D01*
Y148908D01*
X104945Y148602D01*
X104738Y148410D01*
X104325Y148333D01*
X103912Y148410D01*
X103653Y148640D01*
X103498Y148908D01*
Y149867D01*
G01Y148908D02*
X102000Y148333D01*
G01Y146000D02*
X105100D01*
X104480Y146460D01*
G01X102000D02*
Y145540D01*
G01X102465Y143743D02*
X102207Y143513D01*
X102052Y143245D01*
X102000Y142900D01*
X102103Y142555D01*
X102310Y142287D01*
X102672Y142095D01*
X103085Y142057D01*
X103498Y142133D01*
X103757Y142325D01*
X103963Y142593D01*
X104015Y142862D01*
X103963Y143130D01*
X103757Y143475D01*
X105100Y143360D01*
Y142325D01*
G01X92450Y146000D02*
X92143Y146052D01*
X91875Y146258D01*
X91645Y146568D01*
X91492Y146930D01*
X91415Y147343D01*
Y147757D01*
X91492Y148170D01*
X91645Y148532D01*
X91875Y148842D01*
X92143Y149048D01*
X92450Y149100D01*
X92757Y149048D01*
X93025Y148842D01*
X93255Y148532D01*
X93408Y148170D01*
X93485Y147757D01*
Y147343D01*
X93408Y146930D01*
X93255Y146568D01*
X93025Y146258D01*
X92757Y146052D01*
X92450Y146000D01*
G01X92757Y146827D02*
X93217Y146000D01*
G01X94707Y146620D02*
X94937Y146258D01*
X95243Y146052D01*
X95588Y146000D01*
X95895Y146052D01*
X96202Y146310D01*
X96393Y146620D01*
X96432Y146930D01*
X96355Y147292D01*
X96087Y147550D01*
X95818Y147653D01*
X95473D01*
G01X95818D02*
X96048Y147808D01*
X96240Y148067D01*
X96317Y148377D01*
X96240Y148687D01*
X96048Y148945D01*
X95703Y149100D01*
X95358Y149048D01*
X95013Y148842D01*
G01X124683Y12620D02*
X124875Y12310D01*
X125105Y12103D01*
X125373Y12000D01*
X125680Y12103D01*
X125910Y12310D01*
X126140Y12620D01*
X126217Y13033D01*
Y15100D01*
G01X127822Y14583D02*
X128052Y14893D01*
X128320Y15048D01*
X128627Y15100D01*
X129010Y14997D01*
X129278Y14738D01*
X129355Y14428D01*
X129317Y14118D01*
X129163Y13860D01*
X128397Y13343D01*
X128052Y12982D01*
X127822Y12465D01*
X127745Y12000D01*
X129355D01*
G01X121133Y21000D02*
Y24100D01*
X122092D01*
X122398Y23945D01*
X122590Y23738D01*
X122667Y23325D01*
X122590Y22912D01*
X122360Y22653D01*
X122092Y22498D01*
X121133D01*
G01X122092D02*
X122667Y21000D01*
G01X125000D02*
Y24100D01*
X124540Y23480D01*
G01Y21000D02*
X125460D01*
G01X128560D02*
Y24100D01*
X127142Y21878D01*
X129058D01*
G01X143100Y46417D02*
X140000D01*
Y44883D01*
G01Y41783D02*
Y43317D01*
X143100D01*
Y41783D01*
G01X141602Y42397D02*
Y43317D01*
G01X140000Y40293D02*
X143100D01*
Y39527D01*
X142945Y39220D01*
X142738Y38990D01*
X142428Y38798D01*
X142067Y38645D01*
X141550Y38607D01*
X141033Y38645D01*
X140672Y38798D01*
X140362Y38990D01*
X140155Y39220D01*
X140000Y39527D01*
Y40293D01*
G01X142583Y37078D02*
X142893Y36848D01*
X143048Y36580D01*
X143100Y36273D01*
X142997Y35890D01*
X142738Y35622D01*
X142428Y35545D01*
X142118Y35583D01*
X141860Y35737D01*
X141343Y36503D01*
X140982Y36848D01*
X140465Y37078D01*
X140000Y37155D01*
Y35545D01*
G01X135133Y49000D02*
Y52100D01*
X136092D01*
X136398Y51945D01*
X136590Y51738D01*
X136667Y51325D01*
X136590Y50912D01*
X136360Y50653D01*
X136092Y50498D01*
X135133D01*
G01X136092D02*
X136667Y49000D01*
G01X138272Y51583D02*
X138502Y51893D01*
X138770Y52048D01*
X139077Y52100D01*
X139460Y51997D01*
X139728Y51738D01*
X139805Y51428D01*
X139767Y51118D01*
X139613Y50860D01*
X138847Y50343D01*
X138502Y49982D01*
X138272Y49465D01*
X138195Y49000D01*
X139805D01*
G01X141448Y49362D02*
X141717Y49103D01*
X142023Y49000D01*
X142330Y49103D01*
X142598Y49413D01*
X142790Y49878D01*
X142867Y50343D01*
Y50912D01*
X142790Y51377D01*
X142598Y51790D01*
X142368Y51997D01*
X142100Y52100D01*
X141793Y51997D01*
X141563Y51790D01*
X141410Y51480D01*
X141333Y51067D01*
X141410Y50705D01*
X141602Y50343D01*
X141832Y50137D01*
X142100Y50085D01*
X142407Y50188D01*
X142637Y50447D01*
X142867Y50912D01*
G01X135133Y49000D02*
Y52100D01*
X136092D01*
X136398Y51945D01*
X136590Y51738D01*
X136667Y51325D01*
X136590Y50912D01*
X136360Y50653D01*
X136092Y50498D01*
X135133D01*
G01X136092D02*
X136667Y49000D01*
G01X138272Y51583D02*
X138502Y51893D01*
X138770Y52048D01*
X139077Y52100D01*
X139460Y51997D01*
X139728Y51738D01*
X139805Y51428D01*
X139767Y51118D01*
X139613Y50860D01*
X138847Y50343D01*
X138502Y49982D01*
X138272Y49465D01*
X138195Y49000D01*
X139805D01*
G01X141448Y49362D02*
X141717Y49103D01*
X142023Y49000D01*
X142330Y49103D01*
X142598Y49413D01*
X142790Y49878D01*
X142867Y50343D01*
Y50912D01*
X142790Y51377D01*
X142598Y51790D01*
X142368Y51997D01*
X142100Y52100D01*
X141793Y51997D01*
X141563Y51790D01*
X141410Y51480D01*
X141333Y51067D01*
X141410Y50705D01*
X141602Y50343D01*
X141832Y50137D01*
X142100Y50085D01*
X142407Y50188D01*
X142637Y50447D01*
X142867Y50912D01*
G01X119450Y53000D02*
X119143Y53052D01*
X118875Y53258D01*
X118645Y53568D01*
X118492Y53930D01*
X118415Y54343D01*
Y54757D01*
X118492Y55170D01*
X118645Y55532D01*
X118875Y55842D01*
X119143Y56048D01*
X119450Y56100D01*
X119757Y56048D01*
X120025Y55842D01*
X120255Y55532D01*
X120408Y55170D01*
X120485Y54757D01*
Y54343D01*
X120408Y53930D01*
X120255Y53568D01*
X120025Y53258D01*
X119757Y53052D01*
X119450Y53000D01*
G01X119757Y53827D02*
X120217Y53000D01*
G01X121822Y54292D02*
X122090Y54653D01*
X122320Y54860D01*
X122627Y54963D01*
X122895Y54860D01*
X123087Y54653D01*
X123240Y54343D01*
X123278Y53982D01*
X123240Y53672D01*
X123087Y53362D01*
X122857Y53103D01*
X122588Y53000D01*
X122282Y53103D01*
X122013Y53413D01*
X121860Y53878D01*
X121822Y54395D01*
X121898Y55067D01*
X122013Y55428D01*
X122205Y55790D01*
X122473Y56048D01*
X122742Y56100D01*
X123010Y55997D01*
X123202Y55738D01*
G01X120000Y79550D02*
X120052Y79857D01*
X120258Y80125D01*
X120568Y80355D01*
X120930Y80508D01*
X121343Y80585D01*
X121757D01*
X122170Y80508D01*
X122532Y80355D01*
X122842Y80125D01*
X123048Y79857D01*
X123100Y79550D01*
X123048Y79243D01*
X122842Y78975D01*
X122532Y78745D01*
X122170Y78592D01*
X121757Y78515D01*
X121343D01*
X120930Y78592D01*
X120568Y78745D01*
X120258Y78975D01*
X120052Y79243D01*
X120000Y79550D01*
G01X120827Y79243D02*
X120000Y78783D01*
G01Y76450D02*
X120052Y76182D01*
X120207Y75875D01*
X120465Y75683D01*
X120827Y75607D01*
X121188Y75683D01*
X121498Y75913D01*
X121653Y76258D01*
Y76642D01*
X121757Y76872D01*
X122015Y77063D01*
X122377Y77140D01*
X122738Y77025D01*
X122997Y76757D01*
X123100Y76450D01*
X122997Y76143D01*
X122738Y75875D01*
X122377Y75760D01*
X122015Y75837D01*
X121757Y76028D01*
X121653Y76258D01*
Y76642D01*
X121498Y76987D01*
X121188Y77217D01*
X120827Y77293D01*
X120465Y77217D01*
X120207Y77025D01*
X120052Y76718D01*
X120000Y76450D01*
G01X121000Y148867D02*
X124100D01*
Y147908D01*
X123945Y147602D01*
X123738Y147410D01*
X123325Y147333D01*
X122912Y147410D01*
X122653Y147640D01*
X122498Y147908D01*
Y148867D01*
G01Y147908D02*
X121000Y147333D01*
G01Y145000D02*
X124100D01*
X123480Y145460D01*
G01X121000D02*
Y144540D01*
G01X121620Y142743D02*
X121258Y142513D01*
X121052Y142207D01*
X121000Y141862D01*
X121052Y141555D01*
X121310Y141248D01*
X121620Y141057D01*
X121930Y141018D01*
X122292Y141095D01*
X122550Y141363D01*
X122653Y141632D01*
Y141977D01*
G01Y141632D02*
X122808Y141402D01*
X123067Y141210D01*
X123377Y141133D01*
X123687Y141210D01*
X123945Y141402D01*
X124100Y141747D01*
X124048Y142092D01*
X123842Y142437D01*
G01X127000Y125550D02*
X127052Y125857D01*
X127258Y126125D01*
X127568Y126355D01*
X127930Y126508D01*
X128343Y126585D01*
X128757D01*
X129170Y126508D01*
X129532Y126355D01*
X129842Y126125D01*
X130048Y125857D01*
X130100Y125550D01*
X130048Y125243D01*
X129842Y124975D01*
X129532Y124745D01*
X129170Y124592D01*
X128757Y124515D01*
X128343D01*
X127930Y124592D01*
X127568Y124745D01*
X127258Y124975D01*
X127052Y125243D01*
X127000Y125550D01*
G01X127827Y125243D02*
X127000Y124783D01*
G01Y122527D02*
X127672Y122450D01*
X128240Y122335D01*
X128757Y122182D01*
X129325Y121990D01*
X130100Y121683D01*
Y123217D01*
G54D11*
G01X6550Y153500D02*
Y138500D01*
G01D02*
X28050D01*
G01Y153500D02*
X6550D01*
G01X28050Y138500D02*
Y153500D01*
G01X154050Y21500D02*
X132550D01*
G01D02*
Y6500D01*
G01D02*
X154050D01*
G01D02*
Y21500D01*
G54D12*
G01X38823Y112693D02*
G02I-492J0D01*
G01X145161Y34307D02*
G02I-492J0D01*
G01X152484Y111866D02*
G02I-492J0D01*
G54D13*
G01X19000Y87882D02*
Y92118D01*
G01Y105118D02*
Y100882D01*
G01Y113882D02*
Y118118D01*
G01Y130118D02*
Y125882D01*
G01X45118Y15000D02*
X40882D01*
G01X50000Y30118D02*
Y25882D01*
G01X47792Y37197D02*
G02I-178J0D01*
G01X34142Y62858D02*
Y45142D01*
G01X51858D02*
Y62858D01*
G01X38000Y75118D02*
Y70882D01*
G01Y88118D02*
Y83882D01*
G01X30161Y110134D02*
Y101866D01*
G01X37839Y110134D02*
Y101866D01*
G01X53000Y101882D02*
Y106118D01*
G01X32094Y119602D02*
Y123736D01*
G01X43709Y125114D02*
X32291D01*
G01X43709Y126886D02*
Y125114D01*
G01X32291Y126886D02*
X43709D01*
G01X32291Y125114D02*
Y126886D01*
G01X47000Y146882D02*
Y151118D01*
G01X75118Y15000D02*
X70882D01*
G01X60118D02*
X55882D01*
G01X70000Y30118D02*
Y25882D01*
G01X63118Y49000D02*
X58882D01*
G01X78118D02*
X73882D01*
G01X79000Y89118D02*
Y84882D01*
G01X80906Y74398D02*
Y70264D01*
G01X69291Y68886D02*
X80709D01*
G01X69291Y67114D02*
Y68886D01*
G01X80709Y67114D02*
X69291D01*
G01X80709Y68886D02*
Y67114D01*
G01X54094Y66602D02*
Y70736D01*
G01X65709Y72114D02*
X54291D01*
G01X65709Y73886D02*
Y72114D01*
G01X54291Y73886D02*
X65709D01*
G01X54291Y72114D02*
Y73886D01*
G01X75000Y103882D02*
Y108118D01*
G01X67906Y94398D02*
Y90264D01*
G01X56291Y88886D02*
X67709D01*
G01X56291Y87114D02*
Y88886D01*
G01X67709Y87114D02*
X56291D01*
G01X67709Y88886D02*
Y87114D01*
G01X82882Y120000D02*
X87118D01*
G01X74906Y148398D02*
Y144264D01*
G01X63291Y142886D02*
X74709D01*
G01X63291Y141114D02*
Y142886D01*
G01X74709Y141114D02*
X63291D01*
G01X74709Y142886D02*
Y141114D01*
G01X71906Y131398D02*
Y127264D01*
G01X60291Y125886D02*
X71709D01*
G01X60291Y124114D02*
Y125886D01*
G01X71709Y124114D02*
X60291D01*
G01X71709Y125886D02*
Y124114D01*
G01X106118Y15000D02*
X101882D01*
G01X90118D02*
X85882D01*
G01X104792Y29197D02*
G02I-178J0D01*
G01X91142Y54858D02*
Y37142D01*
G01X108858D02*
Y54858D01*
G01X104000Y69882D02*
Y74118D01*
G01X92882Y107000D02*
X97118D01*
G01X92882Y91000D02*
X97118D01*
G01X109118Y86000D02*
X104882D01*
G01X102291Y104886D02*
X113709D01*
G01X102291Y103114D02*
Y104886D01*
G01X113709Y103114D02*
X102291D01*
G01X109118Y126000D02*
X104882D01*
G01X112118Y145000D02*
X107882D01*
G01X87602Y143906D02*
X91736D01*
G01X93114Y132291D02*
Y143709D01*
G01X94886Y132291D02*
X93114D01*
G01X94886Y143709D02*
Y132291D01*
G01X93114Y143709D02*
X94886D01*
G01X125000Y26882D02*
Y31118D01*
G01X126906Y51398D02*
Y47264D01*
G01X115291Y45886D02*
X126709D01*
G01X115291Y44114D02*
Y45886D01*
G01X126709Y44114D02*
X115291D01*
G01X126709Y45886D02*
Y44114D01*
G01X113906Y110398D02*
Y106264D01*
G01X113709Y104886D02*
Y103114D01*
G01X126205Y100252D02*
X151795D01*
G01X126205Y93953D02*
Y100252D01*
G01X131118Y145000D02*
X126882D01*
G01X133094Y117602D02*
Y121736D01*
G01X144709Y123114D02*
X133291D01*
G01Y124886D02*
X144709D01*
G01X133291Y123114D02*
Y124886D01*
G01X152839Y36866D02*
Y45134D01*
G01X145161Y36866D02*
Y45134D01*
G01X144000Y54882D02*
Y59118D01*
G01X151795Y100252D02*
Y93953D01*
G01X144709Y124886D02*
Y123114D01*
M02*
