G04 ================== begin FILE IDENTIFICATION RECORD ==================*
G04 Layout Name:  D:/ERS/allegro/p1_olteanu_rares.brd*
G04 Film Name:    TOP*
G04 File Format:  Gerber RS274X*
G04 File Origin:  Cadence Allegro 24.1-S001*
G04 Origin Date:  Sat Dec 14 12:07:02 2024*
G04 *
G04 Layer:  ETCH/TOP*
G04 Layer:  PIN/TOP*
G04 Layer:  VIA CLASS/TOP*
G04 *
G04 Offset:    (0.00 0.00)*
G04 Mirror:    No*
G04 Mode:      Positive*
G04 Rotation:  0*
G04 FullContactRelief:  No*
G04 UndefLineWidth:     0.10*
G04 ================== end FILE IDENTIFICATION RECORD ====================*
%FSLAX25Y25*MOIN*%
%IR0*IPPOS*OFA0.00000B0.00000*MIA0B0*SFA1.00000B1.00000*%
%ADD21R,.042X.114*%
%ADD12R,.076X.12*%
%ADD10C,.06*%
%ADD17C,.034*%
%ADD14R,.05118X.05118*%
%ADD20R,.22X.24*%
%ADD19R,.042X.03*%
%ADD18R,.03X.042*%
%ADD16R,.06X.05*%
%ADD13R,.065X.045*%
%ADD11R,.045X.065*%
%ADD15R,.084X.056*%
%ADD22C,.02*%
%ADD23C,.026*%
%ADD24C,.018*%
G75*
%LPD*%
G75*
G36*
G01X150318Y115000D02*
X154000D01*
Y60000D01*
X150492D01*
Y60250D01*
G03X149990Y60752I-502J0D01*
G01X145490D01*
G03X144988Y60250I0J-502D01*
G01Y60000D01*
X143012D01*
Y60250D01*
G03X142510Y60752I-502J0D01*
G01X138010D01*
G03X137508Y60250I0J-502D01*
G01Y60000D01*
X132347D01*
X129202Y63145D01*
Y63315D01*
G03X128527Y64942I-2301J-1D01*
G01X124000Y69470D01*
Y97368D01*
X125744D01*
G03X126931Y97038I1187J1970D01*
G01X133037D01*
G03X134664Y97712I0J2301D01*
G01X136227Y99275D01*
G03X136902Y100902I-1626J1628D01*
G01Y101138D01*
X141100D01*
G03X141602Y101639I0J502D01*
G01Y113039D01*
G03X141100Y113540I-501J0D01*
G01X137866D01*
G02X137480Y114046I0J400D01*
G03X137562Y114652I-2220J609D01*
G01Y115000D01*
X145714D01*
Y113510D01*
X145629Y113450D01*
G03X145414Y113039I287J-412D01*
G01Y101639D01*
G03X145916Y101138I501J0D01*
G01X150116D01*
G03X150618Y101639I0J502D01*
G01Y113039D01*
G03X150403Y113450I-502J-1D01*
G01X150318Y113510D01*
Y115000D01*
G37*
G36*
G01X126302D02*
X127682D01*
Y113510D01*
X127597Y113450D01*
G03X127382Y113039I287J-412D01*
G01Y102343D01*
G02X126926Y101947I-400J0D01*
G03X126601Y101970I-325J-2278D01*
G01X124000D01*
Y107392D01*
X125627Y109020D01*
G03X126302Y110647I-1626J1628D01*
G01Y115000D01*
G37*
%LPC*%
G75*
G36*
G01X127498Y68764D02*
Y92764D01*
G02X128000Y93266I502J0D01*
G01X150000D01*
G02X150502Y92764I0J-502D01*
G01Y68764D01*
G02X150000Y68262I-502J0D01*
G01X128000D01*
G02X127498Y68764I0J502D01*
G37*
%LPD*%
G75*
G54D10*
X20000Y20000D03*
X140000Y140000D03*
G54D11*
X15260Y90000D03*
X22740D03*
Y103000D03*
X15260D03*
Y116000D03*
X22740D03*
Y128000D03*
X15260D03*
X53740Y28000D03*
X46260D03*
X41740Y73000D03*
X34260D03*
X41740Y86000D03*
X34260D03*
X49260Y104000D03*
X43260Y149000D03*
X50740D03*
X73740Y28000D03*
X66260D03*
X82740Y87000D03*
X75260D03*
X56740Y104000D03*
X71260Y106000D03*
X78740D03*
X100260Y72000D03*
X107740D03*
X140260Y57000D03*
X121260Y29000D03*
X128740D03*
X147740Y57000D03*
G54D20*
X139000Y80764D03*
G54D12*
X12000Y146000D03*
X22500D03*
X138000Y14000D03*
X148500D03*
G54D21*
X129984Y107339D03*
X139000D03*
X148016D03*
G54D22*
G01X24000Y136000D02*
X22000Y138000D01*
Y145500D01*
X22500Y146000D01*
G01X22740Y128000D02*
Y134740D01*
X24000Y136000D01*
G01X43000Y11260D02*
X58000D01*
G01X43260Y149000D02*
X39791D01*
X31000Y140209D01*
Y136000D01*
G01D02*
X24000D01*
G01X58000Y11260D02*
X73000D01*
G01D02*
X88000D01*
G01X73740Y28000D02*
Y33740D01*
X76000Y36000D01*
G01X66000Y120669D02*
X69331D01*
X74000Y116000D01*
G01X104000Y11260D02*
X129960D01*
X132700Y14000D01*
X138000D01*
G01X88000Y11260D02*
X104000D01*
G01X91000Y72000D02*
X100260D01*
G01X95000Y110740D02*
X94325Y111415D01*
X89415D01*
X88000Y110000D01*
Y75000D01*
X91000Y72000D01*
G01X104260Y108331D02*
X101764D01*
X99355Y110740D01*
X95000D01*
G01X104260Y108331D02*
X104000Y108591D01*
Y113000D01*
X106000Y115000D01*
X117305D01*
X120000Y112305D01*
G01X95000Y121000D02*
X101385D01*
X102645Y122260D01*
X107000D01*
G01X140000Y27000D02*
Y23500D01*
X138000Y21500D01*
Y14000D01*
G01X139000Y68062D02*
Y80764D01*
G01D02*
Y93466D01*
G01X127298Y80764D02*
X139000D01*
G01D02*
X150702D01*
G01X139000Y128331D02*
X128087D01*
X123209Y133209D01*
G01D02*
X120000Y136418D01*
G01X129000Y141260D02*
X128114D01*
X125084Y138230D01*
Y135084D01*
X123209Y133209D01*
G01X153000Y115000D02*
Y122000D01*
X146000Y129000D01*
X142669D01*
X142000Y128331D01*
X139000D01*
G54D13*
X43000Y11260D03*
Y18740D03*
X73000Y11260D03*
Y18740D03*
X58000Y11260D03*
Y18740D03*
X61000Y45260D03*
Y52740D03*
X76000Y45260D03*
Y52740D03*
X85000Y116260D03*
Y123740D03*
X104000Y11260D03*
Y18740D03*
X88000Y11260D03*
Y18740D03*
X107000Y82260D03*
X95000Y110740D03*
Y103260D03*
Y94740D03*
Y87260D03*
X107000Y89740D03*
Y122260D03*
Y129740D03*
X110000Y141260D03*
Y148740D03*
X129000Y141260D03*
Y148740D03*
G54D23*
G01X26499Y83499D02*
X24000Y81000D01*
X9000D01*
X7000Y83000D01*
Y133000D01*
X12000Y138000D01*
Y146000D01*
G01X43000Y18740D02*
X58000D01*
G01X43000D02*
X38345D01*
X38085Y19000D01*
X36000D01*
X26499Y28501D01*
Y53000D01*
G01D02*
Y83499D01*
G01X61000Y52740D02*
X26759D01*
X26499Y53000D01*
G01X34260Y73000D02*
Y86000D01*
G01Y90655D02*
Y86000D01*
G01Y90655D02*
X31915Y93000D01*
X29000D01*
X28000Y92000D01*
Y85000D01*
X26499Y83499D01*
G01X34260Y90655D02*
Y92260D01*
X42000Y100000D01*
Y104000D01*
G01D02*
Y107337D01*
X39400Y109937D01*
X34000D01*
G01X49260Y104000D02*
X42000D01*
G01X34260Y121669D02*
Y114497D01*
X34000Y114237D01*
Y109937D01*
G01X73000Y18740D02*
X88000D01*
G01X58000D02*
X73000D01*
G01X66699Y61299D02*
X69998Y58000D01*
X74000D01*
X76000Y56000D01*
Y52740D01*
G01X66699Y61299D02*
X63400Y58000D01*
X63000D01*
X61000Y56000D01*
Y52740D01*
G01X71260Y72331D02*
Y67348D01*
X66699Y62787D01*
Y61299D01*
G01X88000Y18740D02*
X104000D01*
G01D02*
X126140D01*
X128740Y21340D01*
Y29000D01*
G01X117260Y49331D02*
Y53739D01*
X112899Y58100D01*
Y61776D01*
X116285Y65162D01*
X119961D01*
X123300Y61823D01*
Y60700D01*
X129200Y54800D01*
Y44300D01*
X132273Y41227D01*
X132973D01*
X137137Y37063D01*
G01X149000D02*
X137137D01*
G01X128740Y29000D02*
Y29886D01*
X131982Y33128D01*
X133202D01*
X137137Y37063D01*
G01X148500Y14000D02*
Y31318D01*
X149000Y31818D01*
Y37063D01*
G54D14*
X38472Y43173D03*
X47528D03*
X95472Y35173D03*
X104528D03*
G54D24*
G01X15260Y103000D02*
Y90000D01*
G01X22740D02*
Y96194D01*
X23273Y96727D01*
X32727D01*
X34000Y98000D01*
Y102063D01*
G01X22740Y116000D02*
Y103000D01*
G01X15260Y128000D02*
Y116000D01*
G01X53740Y28000D02*
X66260D01*
G01X61000Y45260D02*
X56745D01*
X56485Y45000D01*
X55000D01*
X53173Y43173D01*
X47528D01*
G01X38472Y45126D02*
Y43173D01*
G01X46260Y28000D02*
X40800D01*
X39000Y29800D01*
Y42645D01*
X38472Y43173D01*
G01X41740Y73000D02*
X53088D01*
X57419Y77331D01*
X60000D01*
G01X56260Y68669D02*
Y65260D01*
X55827Y64827D01*
X43000D01*
G01X51998Y133000D02*
Y115002D01*
G01X62000Y83669D02*
X61331Y83000D01*
X57000D01*
X54000Y86000D01*
X41740D01*
G01X49000Y92000D02*
X55348D01*
X55679Y92331D01*
X58260D01*
G01X69000Y137669D02*
X59331D01*
X55000Y142000D01*
X52098D01*
X51998Y142100D01*
Y133000D01*
G01X38000Y130331D02*
X49329D01*
X51998Y133000D01*
G01X65260Y146331D02*
X62679D01*
X62348Y146000D01*
X60000D01*
X57000Y149000D01*
X50740D01*
G01X76000Y45260D02*
X61000D01*
G01X89553Y64000D02*
X86000D01*
X84000Y66000D01*
Y76000D01*
X80000Y80000D01*
X73507D01*
X70000Y83507D01*
Y99000D01*
G01X62000Y83669D02*
X65312D01*
X72250Y76731D01*
X77269D01*
X78740Y75260D01*
Y72331D01*
G01X63740Y68669D02*
Y65202D01*
X58538Y60000D01*
G01X75000Y63669D02*
X77581D01*
X84000Y57250D01*
Y56000D01*
G01X70000Y99000D02*
Y99574D01*
X69560Y100014D01*
X67014D01*
X65740Y98740D01*
Y92331D01*
G01X71260Y106000D02*
X65000D01*
X63000Y104000D01*
X56740D01*
G01X78740Y106000D02*
Y101745D01*
X78000Y101005D01*
Y97000D01*
X75260Y94260D01*
Y87000D01*
G01X85000Y116260D02*
Y111667D01*
X84700Y111367D01*
Y99700D01*
X82740Y97740D01*
Y87000D01*
G01X89669Y141740D02*
X86202D01*
X85942Y142000D01*
X82000D01*
G01D02*
X77669Y146331D01*
X72740D01*
G01X82000Y142000D02*
Y135000D01*
G01D02*
X85000Y132000D01*
Y123740D01*
G01X69740Y129331D02*
X76331D01*
X82000Y135000D01*
G01X95472Y35173D02*
X90827D01*
X89553Y36447D01*
Y64000D01*
G01X121000Y40669D02*
X118100D01*
X117769Y41000D01*
X111000D01*
X108000Y44000D01*
Y65000D01*
G01X104528Y35173D02*
X119827D01*
X121000Y34000D01*
G01X89553Y64000D02*
Y66553D01*
X90000Y67000D01*
X94000D01*
X100000Y61000D01*
Y56827D01*
G01X107740Y72000D02*
X118215D01*
X126900Y63315D01*
Y62192D01*
X132800Y56292D01*
X136183D01*
X136891Y57000D01*
X140260D01*
G01X107000Y82260D02*
X105940Y81200D01*
X102800D01*
X101000Y83000D01*
Y85515D01*
X99255Y87260D01*
X95000D01*
G01X114000Y78000D02*
X120000Y84000D01*
Y99669D01*
G01D02*
X108000D01*
G01X95000Y94740D02*
Y103260D01*
G01X107000Y89740D02*
X112740D01*
X116000Y93000D01*
G01X121658Y108305D02*
X118342D01*
X118316Y108331D01*
X111740D01*
G01X135260Y119669D02*
X131091D01*
X113845Y136915D01*
Y138301D01*
X110886Y141260D01*
X110000D01*
G01X107000Y129740D02*
X91060D01*
X89260Y131540D01*
Y133851D01*
X89669Y134260D01*
G01X86000Y152000D02*
X94000D01*
X98331Y147669D01*
Y138000D01*
G01X110000Y148740D02*
X129000D01*
G01X121000Y34000D02*
Y33515D01*
X121260Y33255D01*
Y29000D01*
G01X121000Y34000D02*
X121184D01*
X124800Y37616D01*
Y43722D01*
X124740Y43782D01*
Y49331D01*
G01X120000Y99669D02*
X126601D01*
X126931Y99339D01*
X133037D01*
X134600Y100902D01*
Y113992D01*
X135260Y114652D01*
Y119669D01*
G01X119000Y104000D02*
Y105647D01*
X121658Y108305D01*
G01D02*
X124000Y110647D01*
Y116933D01*
X125606Y118539D01*
X127695D01*
X129984Y116250D01*
Y107339D01*
G01X142740Y119669D02*
X147331D01*
X148016Y118984D01*
Y107339D01*
G01X129000Y148740D02*
X140740D01*
X143000Y151000D01*
G01X149000Y44937D02*
Y51485D01*
X147740Y52745D01*
Y57000D01*
G54D15*
X43000Y64827D03*
X100000Y56827D03*
G54D16*
X34000Y102063D03*
Y109937D03*
X149000Y44937D03*
Y37063D03*
G54D17*
X51998Y115002D03*
X49000Y92000D03*
X31000Y136000D03*
X84000Y56000D03*
X76000Y36000D03*
X58538Y60000D03*
X70000Y99000D03*
X74000Y116000D03*
X114000Y78000D03*
X108000Y65000D03*
X91000Y72000D03*
X95000Y121000D03*
X86000Y152000D03*
X140000Y27000D03*
X116000Y93000D03*
X119000Y104000D03*
X120000Y112305D03*
Y136418D03*
X143000Y151000D03*
G54D18*
X38000Y130331D03*
X41740Y121669D03*
X34260D03*
X75000Y63669D03*
X71260Y72331D03*
X78740D03*
X60000Y77331D03*
X63740Y68669D03*
X56260D03*
X62000Y83669D03*
X58260Y92331D03*
X65740D03*
X69000Y137669D03*
X65260Y146331D03*
X72740D03*
X66000Y120669D03*
X62260Y129331D03*
X69740D03*
X108000Y99669D03*
X104260Y108331D03*
X111740D03*
X121000Y40669D03*
X117260Y49331D03*
X124740D03*
X139000Y128331D03*
X142740Y119669D03*
X135260D03*
G54D19*
X98331Y138000D03*
X89669Y134260D03*
Y141740D03*
M02*
